<?xml version="1.0" encoding="iso-8859-1"?>
<!-- Generator: Adobe Illustrator 19.0.0, SVG Export Plug-In . SVG Version: 6.00 Build 0)  -->
<svg version="1.1" id="Layer_1" xmlns="http://www.w3.org/2000/svg" xmlns:xlink="http://www.w3.org/1999/xlink" x="0px" y="0px"
	 viewBox="0 0 512 512" style="enable-background:new 0 0 512 512;" xml:space="preserve">
<g>
	<path style="fill:#A3875E;" d="M500.284,141.076c0,40.48-25.002,75.113-60.409,89.325c-6.995-16.825-16.801-32.442-28.892-46.373
		c20.749-3.316,36.602-21.277,36.602-42.952c0-24.03-19.472-43.502-43.502-43.502c-24.018,0-43.491,19.472-43.491,43.502
		c0,0.691,0.012,1.371,0.047,2.05c-15.641-8.846-32.782-15.77-51.001-20.398c8.565-44.358,47.591-77.854,94.445-77.854
		C457.215,44.874,500.284,87.943,500.284,141.076z"/>
	<path style="fill:#A3875E;" d="M72.125,230.401c6.995-16.825,16.801-32.442,28.892-46.373c13.977-16.11,31.025-29.97,50.345-40.901
		c15.641-8.846,32.782-15.77,51.001-20.398c17.047-4.323,35.043-6.643,53.637-6.643s36.59,2.32,53.637,6.643
		c18.219,4.628,35.36,11.552,51.001,20.398c19.32,10.931,36.367,24.792,50.345,40.901c12.091,13.931,21.898,29.548,28.892,46.373
		c7.92,19.062,12.255,39.683,12.255,61.206c0,63.818-38.054,119.67-94.96,150.39l-0.914-1.711v-88.704
		c0-38.64-35.313-69.958-78.874-69.958h-42.764c-43.561,0-78.874,31.318-78.874,69.958v88.704l-0.914,1.711
		c-56.906-30.72-94.96-86.571-94.96-150.39C59.87,270.083,64.205,249.463,72.125,230.401z"/>
</g>
<g>
	<path style="fill:#DBB67E;" d="M447.584,141.076c0,21.675-15.852,39.636-36.602,42.952c-13.977-16.11-31.025-29.97-50.345-40.901
		c-0.035-0.68-0.047-1.359-0.047-2.05c0-24.03,19.472-43.502,43.491-43.502C428.112,97.573,447.584,117.046,447.584,141.076z"/>
	<path style="fill:#DBB67E;" d="M256,396.537l33.977-36.719c5.999-6.467,1.406-16.977-7.416-16.977h-53.121
		c-8.822,0-13.415,10.509-7.416,16.977L256,396.537z M356.256,440.285l0.914,1.711c-29.537,15.958-64.158,25.131-101.17,25.131
		s-71.633-9.174-101.17-25.131l0.914-1.711v-88.704c0-38.64,35.313-69.958,78.874-69.958h42.764
		c43.561,0,78.874,31.318,78.874,69.958V440.285z"/>
</g>
<g>
	<path style="fill:#A3875E;" d="M282.561,342.841c8.822,0,13.415,10.509,7.416,16.977L256,396.537l-33.977-36.719
		c-5.999-6.467-1.406-16.977,7.416-16.977H282.561z"/>
	<path style="fill:#A3875E;" d="M107.918,44.874c46.853,0,85.88,33.497,94.445,77.854c-18.219,4.628-35.36,11.552-51.001,20.398
		c0.035-0.68,0.047-1.371,0.047-2.05c0-24.03-19.472-43.502-43.491-43.502c-24.03,0-43.502,19.472-43.502,43.502
		c0,21.675,15.864,39.648,36.602,42.952c-12.091,13.931-21.898,29.548-28.892,46.373c-35.406-14.212-60.409-48.845-60.409-89.325
		C11.716,87.943,54.785,44.874,107.918,44.874z"/>
</g>
<path style="fill:#DBB67E;" d="M151.409,141.076c0,0.68-0.012,1.371-0.047,2.05c-19.32,10.931-36.367,24.792-50.345,40.901
	c-20.738-3.304-36.602-21.277-36.602-42.952c0-24.03,19.472-43.502,43.502-43.502C131.937,97.573,151.409,117.046,151.409,141.076z"
	/>
<path d="M512,141.076c0-59.507-48.412-107.918-107.918-107.918c-47.548,0-89.082,31.183-102.978,75.659
	c-14.757-2.937-29.875-4.447-45.104-4.447c-15.229,0-30.346,1.509-45.104,4.447C197,64.34,155.466,33.158,107.918,33.158
	C48.412,33.158,0,81.569,0,141.076c0,40.476,22.167,76.765,57.336,95.354c-6.09,17.817-9.182,36.326-9.182,55.176
	c0,33.054,9.687,65.544,28.011,93.956c17.658,27.38,42.935,50.458,73.098,66.74c32.136,17.362,69.046,26.54,106.739,26.54
	s74.602-9.177,106.735-26.537c56.895-30.713,94.381-84.468,100.276-143.793c0.64-6.439-4.062-12.178-10.501-12.818
	c-6.438-0.635-12.178,4.062-12.816,10.5c-4.541,45.706-30.939,87.743-71.72,115.52v-70.133c0-45.035-40.639-81.674-90.59-81.674
	H234.62c-49.952,0-90.59,36.639-90.59,81.674v70.174c-45.688-30.893-72.444-78.37-72.444-130.149c0-19.49,3.822-38.57,11.357-56.708
	c6.446-15.503,15.504-30.036,26.923-43.193c13.164-15.171,29.068-28.085,47.265-38.381c14.946-8.453,31.135-14.926,48.112-19.239
	c16.44-4.17,33.518-6.283,50.757-6.283s34.317,2.114,50.752,6.282c16.982,4.314,33.171,10.788,48.114,19.24
	c18.199,10.297,34.101,23.211,47.267,38.384c11.419,13.156,20.478,27.688,26.923,43.192c0.196,0.471,0.428,0.915,0.676,1.346
	c0.064,0.111,0.131,0.219,0.198,0.327c0.254,0.41,0.525,0.803,0.822,1.172c0.033,0.041,0.061,0.086,0.095,0.125
	c0.329,0.398,0.688,0.764,1.061,1.111c0.089,0.083,0.18,0.163,0.272,0.243c0.373,0.323,0.757,0.629,1.163,0.902
	c0.019,0.012,0.035,0.027,0.053,0.039c0.424,0.281,0.869,0.524,1.325,0.746c0.11,0.054,0.22,0.105,0.332,0.156
	c0.462,0.209,0.933,0.398,1.418,0.546c0.012,0.004,0.025,0.006,0.036,0.009c0.475,0.143,0.96,0.245,1.45,0.327
	c0.124,0.021,0.247,0.04,0.373,0.057c0.501,0.067,1.008,0.111,1.518,0.112c0.009,0,0.019,0.002,0.029,0.002
	c0.296,0,0.594-0.019,0.893-0.042c0.063-0.005,0.127-0.004,0.19-0.009c0.375-0.035,0.751-0.089,1.126-0.162
	c0.093-0.018,0.184-0.047,0.276-0.067c0.281-0.061,0.561-0.125,0.84-0.207c0.134-0.04,0.266-0.094,0.398-0.138
	c0.212-0.071,0.426-0.136,0.636-0.22c0.036-0.014,0.072-0.03,0.108-0.046c0.009-0.004,0.018-0.006,0.027-0.009
	c0.012-0.005,0.021-0.011,0.033-0.015C485.473,224.641,512,185.361,512,141.076z M256,379.287l-22.882-24.728h45.765L256,379.287z
	 M234.618,293.34h42.764c37.03,0,67.158,26.127,67.158,58.241v83.709c-23.62,11.511-49.84,18.262-76.823,19.779v-53.944
	l30.851-33.341c5.991-6.459,7.524-15.488,4-23.563c-3.473-7.956-11.326-13.098-20.007-13.098h-53.121
	c-8.681,0-16.534,5.141-20.007,13.098c-3.524,8.075-1.991,17.105,3.991,23.553l30.861,33.351v53.944
	c-26.984-1.517-53.202-8.268-76.823-19.781v-83.709C167.46,319.467,197.587,293.34,234.618,293.34z M23.432,141.076
	c0-46.586,37.901-84.486,84.486-84.486c36.796,0,68.999,23.84,80.241,58.007c-9.396,2.922-18.544,6.447-27.383,10.558
	c-6.85-22.71-27.949-39.297-52.858-39.297c-30.447,0-55.219,24.772-55.219,55.219c0,20.901,11.461,39.227,28.913,48.603
	c-5.764,7.988-10.834,16.348-15.174,25.024C40.002,199.863,23.432,172.036,23.432,141.076z M97.041,170.955
	c-12.403-4.457-20.909-16.211-20.909-29.879c0-17.528,14.259-31.786,31.786-31.786c16.002,0,29.272,11.896,31.453,27.311
	C123.548,146.272,109.355,157.79,97.041,170.955z M372.627,136.6c2.182-15.415,15.451-27.312,31.453-27.312
	c17.527,0,31.786,14.259,31.786,31.786c0,13.66-8.506,25.414-20.911,29.876C402.643,157.789,388.452,146.272,372.627,136.6z
	 M445.559,214.702c-4.341-8.677-9.412-17.038-15.177-25.027c17.454-9.379,28.917-27.705,28.917-48.599
	c0-30.448-24.772-55.219-55.219-55.219c-24.909,0-46.007,16.589-52.858,39.297c-8.838-4.11-17.986-7.637-27.383-10.558
	C335.081,80.43,367.284,56.59,404.08,56.59c46.586,0,84.486,37.901,84.486,84.486C488.567,172.036,471.998,199.863,445.559,214.702z
	"/>
<path d="M447.172,250.533c-6.357,1.207-10.532,7.339-9.325,13.696c0.478,2.52,0.896,5.091,1.242,7.64
	c0.796,5.879,5.823,10.145,11.594,10.145c0.524,0,1.053-0.035,1.586-0.107c6.412-0.868,10.907-6.77,10.037-13.182
	c-0.401-2.958-0.885-5.941-1.44-8.867C459.661,253.501,453.531,249.332,447.172,250.533z"/>
<path d="M199.457,198.134v25.377c0,6.471,5.247,11.716,11.716,11.716c6.47,0,11.716-5.245,11.716-11.716v-25.377
	c0-6.471-5.247-11.716-11.716-11.716C204.704,186.418,199.457,191.663,199.457,198.134z"/>
<path d="M289.11,198.134v25.377c0,6.471,5.247,11.716,11.716,11.716c6.47,0,11.716-5.245,11.716-11.716v-25.377
	c0-6.471-5.247-11.716-11.716-11.716C294.357,186.418,289.11,191.663,289.11,198.134z"/>
<g>
</g>
<g>
</g>
<g>
</g>
<g>
</g>
<g>
</g>
<g>
</g>
<g>
</g>
<g>
</g>
<g>
</g>
<g>
</g>
<g>
</g>
<g>
</g>
<g>
</g>
<g>
</g>
<g>
</g>
</svg>
