<?xml version="1.0" ?><!DOCTYPE svg  PUBLIC '-//W3C//DTD SVG 1.1//EN'  'http://www.w3.org/Graphics/SVG/1.1/DTD/svg11.dtd'><svg width="512px" height="512px" viewBox="0 0 512 512" enable-background="new 0 0 512 512" id="Layer_1" version="1.1" xml:space="preserve" xmlns="http://www.w3.org/2000/svg" xmlns:xlink="http://www.w3.org/1999/xlink"><g><rect clip-rule="evenodd" fill="#FEE1E3" fill-rule="evenodd" height="203.483" width="291.708" x="127.222" y="167.065"/><path d="M399.355,143.949c-1.592-1.587-3.79-2.497-6.039-2.497H101.608c-2.244,0-4.448,0.91-6.035,2.497   c-1.592,1.593-2.503,3.791-2.503,6.041v203.483c0,2.25,0.911,4.447,2.503,6.035c1.587,1.592,3.791,2.504,6.035,2.504h291.708   c2.249,0,4.447-0.912,6.039-2.504c1.587-1.588,2.5-3.785,2.5-6.035V149.99C401.855,147.74,400.942,145.542,399.355,143.949z    M110.146,181.009l94.125,61.052c0.534,4.242,1.925,8.231,3.862,12.024l-97.987,83.35V181.009z M229.47,225.422   c5.372,0.477,6.346,2.211,7.956,4.79c0.669,1.313,1.091,2.815,1.3,3.914c0.208,1.092,0.15,1.431,0.203,1.431   c0.136,4.663,3.991,8.355,8.654,8.291c4.661-0.065,8.412-3.869,8.421-8.532c-0.033-0.02,0.044-2.672,1.351-5.188   c1.543-2.466,2.371-4.199,8.095-4.705c1.167,0.162,8.331,2.776,8.339,14.282v0.189h0.007c0.942,7.565-13.597,22.761-26.416,35.032   c-3.079-2.932-7.045-6.869-11.013-11.26c-6.925-7.167-13.131-16.665-14.821-21.421c-0.794-1.549-0.544-6.049,0.189-7.676   C223.472,227.391,228.508,225.558,229.47,225.422z M217.861,268.225c1.927,2.342,3.906,4.637,5.837,6.898   c9.116,10.068,18.018,17.779,18.168,17.916c3.382,2.938,8.493,2.75,11.653-0.43c6.83-7.426,17.54-15.92,25.753-26.172   c0.125,0.119,0.246,0.244,0.379,0.355l91.857,78.143H127.686L217.861,268.225z M290.714,253.79   c-0.837-0.713-1.773-1.228-2.754-1.564c0.937-2.274,1.669-4.627,2.177-7.059l94.643-61.387v150.023L290.714,253.79z    M384.779,163.426l-96.437,62.553c-4.502-11.403-14.282-17.591-23.003-17.649l-0.325,0.007c-7.517,0.123-13.517,3.138-17.659,6.99   c-4.1-3.821-10.007-6.842-17.434-6.99l-0.339-0.007c-8.166,0.058-17.219,5.481-22.043,15.5l-94.167-61.082   c-1.011-0.656-2.108-1.068-3.226-1.256v-2.964h274.633V163.426z" fill="#959595"/></g></svg>