<?xml version="1.0" encoding="iso-8859-1"?>
<!-- Generator: Adobe Illustrator 19.0.0, SVG Export Plug-In . SVG Version: 6.00 Build 0)  -->
<svg version="1.1" id="Layer_1" xmlns="http://www.w3.org/2000/svg" xmlns:xlink="http://www.w3.org/1999/xlink" x="0px" y="0px"
	 viewBox="0 0 512 512" style="enable-background:new 0 0 512 512;" xml:space="preserve">
<g>
	<path style="fill:#f58682;" d="M60.761,139.885c-7.81,0-14.144-6.332-14.144-14.144V60.76c0-7.812,6.334-14.144,14.144-14.144
		h64.979c7.81,0,14.144,6.332,14.144,14.144s-6.334,14.144-14.144,14.144H74.905v50.837
		C74.905,133.553,68.571,139.885,60.761,139.885z"/>
	<path style="fill:#f58682;" d="M451.239,465.384H386.26c-7.81,0-14.144-6.332-14.144-14.144s6.334-14.144,14.144-14.144h50.835
		V386.26c0-7.812,6.334-14.144,14.144-14.144c7.81,0,14.144,6.332,14.144,14.144v64.98
		C465.383,459.05,459.05,465.384,451.239,465.384z"/>
	<path style="fill:#f58682;" d="M497.856,512H14.144C6.334,512,0,505.668,0,497.856V14.144C0,6.332,6.334,0,14.144,0h483.713
		C505.667,0,512,6.332,512,14.144v483.713C512,505.668,505.667,512,497.856,512z M28.287,483.713h455.425V28.287H28.287V483.713z"/>
</g>
<path style="fill:#F4B2B0;" d="M278.539,273.047h67.619v-67.619h-67.619v-26.941c0-10.875,6.981-18.139,12.965-18.139h54.654V92.729
	h-54.654c-41.953,0-76.072,40.915-76.072,86.35v26.35H165.84v67.619h49.593v146.224h63.106v-86.896"/>
<path style="fill:#f58682;" d="M278.541,433.415h-63.106c-7.81,0-14.144-6.332-14.144-14.144v-132.08h-35.448
	c-7.81,0-14.144-6.332-14.144-14.144v-67.619c0-7.812,6.334-14.144,14.144-14.144h35.448v-12.206
	c0-54.473,41.314-100.493,90.215-100.493h54.654c7.81,0,14.144,6.332,14.144,14.144v67.619c0,7.812-6.333,14.144-14.144,14.144
	h-52.544c-0.434,0.74-0.931,2.061-0.931,3.996v12.797h53.476c7.81,0,14.144,6.332,14.144,14.144v67.619
	c0,7.812-6.334,14.144-14.144,14.144h-67.619c-7.81,0-14.144-6.332-14.144-14.144c0-7.812,6.334-14.144,14.144-14.144h53.476
	v-39.332h-53.476c-7.81,0-14.144-6.332-14.144-14.144v-26.941c0-17.8,12.162-32.283,27.109-32.283h40.51v-39.331h-40.51
	c-32.99,0-61.928,33.741-61.928,72.206v26.35c0,7.812-6.334,14.144-14.144,14.144h-35.448v39.332h35.448
	c7.81,0,14.144,6.332,14.144,14.144v132.08h34.819v-72.754c0-7.812,6.334-14.144,14.144-14.144c7.81,0,14.144,6.332,14.144,14.144
	v86.896C292.684,427.082,286.351,433.415,278.541,433.415z"/>
<g>
</g>
<g>
</g>
<g>
</g>
<g>
</g>
<g>
</g>
<g>
</g>
<g>
</g>
<g>
</g>
<g>
</g>
<g>
</g>
<g>
</g>
<g>
</g>
<g>
</g>
<g>
</g>
<g>
</g>
</svg>
