<?xml version="1.0" encoding="iso-8859-1"?>
<!-- Generator: Adobe Illustrator 19.0.0, SVG Export Plug-In . SVG Version: 6.00 Build 0)  -->
<svg version="1.1" id="Layer_1" xmlns="http://www.w3.org/2000/svg" xmlns:xlink="http://www.w3.org/1999/xlink" x="0px" y="0px"
	 viewBox="0 0 512 512" style="enable-background:new 0 0 512 512;" xml:space="preserve">
<g>
	<g>
		<g>
			<path style="fill:#f58682" d="M359.312,0H152.689C68.849,0,0.64,68.208,0.64,152.049v207.903C0.64,443.792,68.849,512,152.689,512h206.623
				c83.839,0,152.048-68.208,152.048-152.048V152.049C511.359,68.208,443.151,0,359.312,0z M490.961,359.951
				c0,72.593-59.057,131.65-131.649,131.65H152.689c-72.593,0-131.65-59.057-131.65-131.649V152.049
				c0-72.593,59.057-131.65,131.65-131.65h206.623c72.592,0,131.649,59.057,131.649,131.65V359.951z"/><!--Cuadro externo-->
			<path style="fill:#f58682" d="M359.312,58.294H152.689c-51.698,0-93.756,42.057-93.756,93.755v207.904c0,51.697,42.058,93.755,93.756,93.755h206.623
				c51.697,0,93.755-42.058,93.755-93.755V152.049C453.067,100.352,411.009,58.294,359.312,58.294z M432.669,359.951
				c0,40.449-32.908,73.357-73.357,73.357H152.689c-40.45,0-73.358-32.908-73.358-73.357V152.048
				c0-40.449,32.908-73.357,73.358-73.357v0.001h206.623c40.449,0,73.357,32.908,73.357,73.357V359.951z"/><!--Cuadro interno-->
		</g>
	</g>
</g>
<g>
	<g>
		<g>
			<path style="fill:#f58682" d="M256,124.178c-72.686,0-131.821,59.135-131.821,131.822S183.313,387.821,256,387.821S387.821,328.687,387.821,256
				S328.686,124.178,256,124.178z M256,367.422c-61.438,0-111.422-49.984-111.422-111.422c0-61.439,49.984-111.423,111.422-111.423
				c61.439,0,111.422,49.984,111.422,111.423C367.422,317.438,317.438,367.422,256,367.422z"/><!--Círculo externo-->
			<path style="fill:#f58682" d="M256,181.041c-41.332,0-74.959,33.627-74.959,74.959s33.627,74.959,74.959,74.959c41.333,0,74.959-33.627,74.959-74.959
				S297.332,181.041,256,181.041z M256,310.561c-30.085,0-54.561-24.476-54.561-54.561s24.476-54.561,54.561-54.561
				s54.561,24.475,54.561,54.561C310.561,286.085,286.085,310.561,256,310.561z"/><!--Círculo más pequeño del centro-->
		</g>
	</g>
</g>
<g>
	<g>
		<path style="fill:#F4B2B0" d="M380.485,99.843c-17.464,0-31.673,14.208-31.673,31.673s14.208,31.672,31.673,31.672
			c17.463,0,31.672-14.207,31.672-31.672S397.948,99.843,380.485,99.843z M380.485,142.789c-6.216,0-11.274-5.057-11.274-11.273
			c0-6.217,5.058-11.274,11.274-11.274s11.273,5.058,11.273,11.274C391.759,137.732,386.702,142.789,380.485,142.789z"/><!--círculo más pequeño, flash-->
	</g>
</g>
<g>
	<g>
		<path style="fill:#F4B2B0" d="M239.681,463.044h-95.872c-5.633,0-10.199,4.566-10.199,10.199s4.566,10.199,10.199,10.199h95.872
			c5.633,0,10.199-4.566,10.199-10.199S245.314,463.044,239.681,463.044z"/><!--Línea larga debajo del logo-->
	</g>
</g>
<g>
	<g>
		<path style="fill:#F4B2B0" d="M278.438,463.044h-6.12c-5.632,0-10.199,4.566-10.199,10.199s4.567,10.199,10.199,10.199h6.12
			c5.633,0,10.199-4.566,10.199-10.199S284.07,463.044,278.438,463.044z"/><!--Línea pequeña abajo del logo-->
	</g>
</g>
<g>
</g>
<g>
</g>
<g>
</g>
<g>
</g>
<g>
</g>
<g>
</g>
<g>
</g>
<g>
</g>
<g>
</g>
<g>
</g>
<g>
</g>
<g>
</g>
<g>
</g>
<g>
</g>
<g>
</g>
</svg>
