<svg version="1.1" id="Layer_1" xmlns="http://www.w3.org/2000/svg" xmlns:xlink="http://www.w3.org/1999/xlink" x="0px" y="0px"
	 width="100%" viewBox="0 0 1000 1000" enable-background="new 0 0 1000 1000" xml:space="preserve">
<path fill="#FFFFFF" opacity="0" stroke="none" 
	d="
M467.000000,1001.000000 
	C311.333344,1001.000000 156.166672,1001.000000 1.000000,1001.000000 
	C1.000000,667.666687 1.000000,334.333344 1.000000,1.000000 
	C334.333344,1.000000 667.666687,1.000000 1001.000000,1.000000 
	C1001.000000,334.333344 1001.000000,667.666687 1001.000000,1001.000000 
	C823.166687,1001.000000 645.333313,1001.000000 467.000000,1001.000000 
M948.003845,518.499878 
	C946.564209,516.108398 945.170105,513.688110 943.678406,511.329620 
	C918.923401,472.189911 894.149109,433.062408 869.393799,393.922882 
	C851.224426,365.196136 833.144287,336.412323 814.783203,307.808807 
	C813.393555,305.643921 810.060425,303.406403 807.654602,303.432159 
	C793.933838,303.578979 780.223022,304.476013 766.503540,304.973755 
	C754.398804,305.412872 742.287170,305.663300 730.178589,305.996460 
	C718.070007,306.329620 705.961731,306.672211 693.852844,306.992035 
	C680.744568,307.338257 667.635559,307.653137 654.527283,307.999756 
	C642.419495,308.319946 630.308472,308.574005 618.209351,309.098389 
	C616.471130,309.173737 614.289734,310.170532 613.164490,311.474976 
	C604.338684,321.706665 595.677124,332.081543 587.047546,342.480743 
	C571.062195,361.743958 555.133057,381.053711 539.062500,400.486694 
	C547.149597,412.632904 555.098328,424.693268 563.169922,436.670776 
	C584.554993,468.403961 606.012207,500.088654 627.335266,531.863342 
	C628.117859,533.029480 628.509644,535.352478 627.879150,536.434326 
	C621.428711,547.502258 614.771606,558.450928 608.089111,569.382141 
	C596.014832,589.133179 583.826355,608.814514 571.793640,628.590759 
	C561.035034,646.273010 550.424316,664.045227 539.744080,681.775085 
	C533.695007,691.817017 527.637329,701.853760 521.848572,711.453186 
	C524.481812,714.816772 526.501343,717.585205 528.713623,720.190002 
	C538.536621,731.755859 548.507446,743.197327 558.250305,754.829956 
	C571.045105,770.106567 583.709351,785.493103 596.349182,800.898376 
	C598.865906,803.965759 601.715637,805.224854 605.782837,805.088318 
	C621.884399,804.547485 637.995544,804.206421 654.105774,804.029358 
	C691.879578,803.614319 729.654663,803.286865 767.430054,803.087280 
	C770.832031,803.069336 772.998047,801.926880 774.934692,799.329590 
	C783.772278,787.477478 792.682617,775.679321 801.613892,763.897461 
	C816.704651,743.990112 831.868652,724.138123 846.931946,704.210022 
	C861.790649,684.552551 876.542603,664.814392 891.378052,645.139343 
	C906.609619,624.938965 921.863342,604.755249 937.149963,584.596619 
	C946.657104,572.059631 956.243286,559.582642 965.886536,546.957520 
	C960.110657,537.684326 954.304688,528.362793 948.003845,518.499878 
M133.488449,566.008545 
	C129.692429,572.548340 125.898636,579.089355 122.099968,585.627625 
	C112.031982,602.956482 101.961037,620.283691 91.892815,637.612427 
	C83.227661,652.526367 74.573708,667.446716 65.897728,682.354370 
	C59.330799,693.638123 52.737022,704.906250 46.213459,716.081543 
	C52.620827,723.375061 58.799774,730.661072 65.250290,737.698120 
	C78.124947,751.743408 91.188248,765.615601 104.089859,779.636292 
	C108.782494,784.735962 113.281555,790.016724 117.786903,795.285034 
	C122.662704,800.986450 127.747658,805.555115 136.307861,804.142761 
	C142.631851,803.099243 149.166046,803.312073 155.608658,803.009583 
	C163.215073,802.652344 170.822266,802.302856 178.431717,802.020752 
	C197.145599,801.326660 215.858719,800.599060 234.576477,800.026855 
	C249.346146,799.575378 264.123840,799.389954 278.894684,798.970947 
	C284.007996,798.825928 289.123627,798.449463 294.210541,797.915283 
	C295.418335,797.788391 296.823608,796.849548 297.614563,795.864014 
	C305.231445,786.373291 312.709808,776.771667 320.278839,767.242188 
	C334.704285,749.080505 349.228210,730.996643 363.588928,712.784058 
	C376.513123,696.393250 389.190674,679.807922 402.127594,663.427246 
	C417.827789,643.547668 433.754974,623.847290 449.455780,603.968140 
	C464.333099,585.131592 479.044708,566.164124 493.978699,547.063049 
	C492.752411,544.940063 491.556366,542.642395 490.154785,540.477783 
	C475.518860,517.874695 460.856873,495.288452 446.188202,472.706604 
	C431.965118,450.810669 417.774017,428.893768 403.482269,407.042694 
	C381.818207,373.920044 360.020081,340.884766 338.458557,307.695679 
	C336.169159,304.171631 333.716858,302.890930 329.599762,302.921295 
	C269.500793,303.364532 209.400803,303.663483 149.301056,303.996643 
	C148.801147,303.999420 148.231659,303.843414 147.814865,304.030029 
	C146.738449,304.512024 145.491135,304.924713 144.729340,305.750183 
	C133.614365,317.794373 122.575668,329.908936 111.503090,341.992310 
	C96.739517,358.103668 82.031868,374.267487 67.111206,390.232178 
	C65.024422,392.464966 65.253761,393.967163 66.574181,396.156372 
	C76.583008,412.750732 86.426338,429.446167 96.551903,445.968689 
	C114.226921,474.810242 132.104187,503.527954 149.728394,532.400269 
	C150.609772,533.844238 150.632614,536.670593 149.805649,538.158936 
	C144.701263,547.345703 139.238052,556.333008 133.488449,566.008545 
z"/>
<path fill="#D46B93" opacity="1.000000" stroke="none" 
	d="
M948.251282,518.770569 
	C954.304688,528.362793 960.110657,537.684326 965.886536,546.957520 
	C956.243286,559.582642 946.657104,572.059631 937.149963,584.596619 
	C921.863342,604.755249 906.609619,624.938965 891.378052,645.139343 
	C876.542603,664.814392 861.790649,684.552551 846.931946,704.210022 
	C831.868652,724.138123 816.704651,743.990112 801.613892,763.897461 
	C792.682617,775.679321 783.772278,787.477478 774.934692,799.329590 
	C772.998047,801.926880 770.832031,803.069336 767.430054,803.087280 
	C729.654663,803.286865 691.879578,803.614319 654.105774,804.029358 
	C637.995544,804.206421 621.884399,804.547485 605.782837,805.088318 
	C601.715637,805.224854 598.865906,803.965759 596.349182,800.898376 
	C583.709351,785.493103 571.045105,770.106567 558.250305,754.829956 
	C548.507446,743.197327 538.536621,731.755859 528.713623,720.190002 
	C526.501343,717.585205 524.481812,714.816772 521.848572,711.453186 
	C527.637329,701.853760 533.695007,691.817017 539.744080,681.775085 
	C550.424316,664.045227 561.035034,646.273010 571.793640,628.590759 
	C583.826355,608.814514 596.014832,589.133179 608.089111,569.382141 
	C614.771606,558.450928 621.428711,547.502258 627.879150,536.434326 
	C628.509644,535.352478 628.117859,533.029480 627.335266,531.863342 
	C606.012207,500.088654 584.554993,468.403961 563.169922,436.670776 
	C555.098328,424.693268 547.149597,412.632904 539.062500,400.486694 
	C555.133057,381.053711 571.062195,361.743958 587.047546,342.480743 
	C595.677124,332.081543 604.338684,321.706665 613.164490,311.474976 
	C614.289734,310.170532 616.471130,309.173737 618.209351,309.098389 
	C630.308472,308.574005 642.419495,308.319946 654.527283,307.999756 
	C667.635559,307.653137 680.744568,307.338257 693.852844,306.992035 
	C705.961731,306.672211 718.070007,306.329620 730.178589,305.996460 
	C742.287170,305.663300 754.398804,305.412872 766.503540,304.973755 
	C780.223022,304.476013 793.933838,303.578979 807.654602,303.432159 
	C810.060425,303.406403 813.393555,305.643921 814.783203,307.808807 
	C833.144287,336.412323 851.224426,365.196136 869.393799,393.922882 
	C894.149109,433.062408 918.923401,472.189911 943.678406,511.329620 
	C945.170105,513.688110 946.564209,516.108398 948.251282,518.770569 
M801.983459,738.987610 
	C801.983459,738.987610 801.993591,739.060852 802.493225,738.695251 
	C802.677307,738.128479 802.861389,737.561768 802.994873,736.997925 
	C802.994873,736.997925 803.016479,737.043884 803.680237,736.874268 
	C804.031494,736.519775 804.429016,736.200256 804.727661,735.805969 
	C851.653809,673.828186 898.558167,611.833923 945.540100,549.898438 
	C947.625671,547.149109 947.905579,545.187256 945.930298,542.092834 
	C926.853821,512.206848 907.983521,482.189423 889.033325,452.222748 
	C861.542297,408.749939 834.001038,365.308777 806.605713,321.775787 
	C804.739319,318.809937 802.731628,317.672516 799.346741,317.975677 
	C793.743225,318.477509 788.116455,318.807465 782.492493,318.974457 
	C767.053711,319.432892 751.611206,319.769043 735.220886,320.044861 
	C725.930908,320.363922 716.642883,320.773621 707.350464,320.982758 
	C689.395386,321.386932 671.435425,321.586517 653.482666,322.065918 
	C647.266602,322.231903 641.066040,322.976105 634.471863,323.486084 
	C635.251221,324.772858 635.842957,325.935577 636.602234,326.975983 
	C651.972534,348.036285 667.331787,369.104675 682.753967,390.126953 
	C715.169006,434.312622 747.627136,478.466644 780.046204,522.649292 
	C785.125854,529.572083 785.265381,534.589294 780.756165,541.392517 
	C749.706604,588.238708 718.653381,635.082520 687.604248,681.928894 
	C664.733032,716.436707 641.864014,750.945862 619.006409,785.462585 
	C618.130249,786.785522 617.383911,788.194397 616.296387,790.039612 
	C618.780823,790.039612 620.597778,790.052002 622.414490,790.037781 
	C666.211426,789.694458 710.008301,789.347656 753.805237,789.004822 
	C756.138306,788.986572 758.551758,789.367737 760.781067,788.885132 
	C762.805786,788.446716 765.142151,787.530945 766.444763,786.041565 
	C770.044922,781.925476 773.191528,777.410950 776.490417,773.033508 
	C784.660950,762.191650 792.816406,751.338501 801.417053,740.035950 
	C801.629883,739.681030 801.842773,739.326111 801.983459,738.987610 
M679.522949,667.660339 
	C680.230408,666.968750 681.089600,666.377441 681.622620,665.570557 
	C690.422852,652.248047 699.185364,638.900635 707.930908,625.542053 
	C708.144653,625.215576 708.066895,624.698242 708.145935,624.116394 
	C707.142639,624.116394 706.314880,624.045776 705.502319,624.127075 
	C692.811218,625.397217 680.128967,626.761597 667.430420,627.951233 
	C655.050720,629.110901 642.649475,630.039978 630.267212,631.173767 
	C617.068420,632.382324 603.896362,633.938538 590.678833,634.856262 
	C586.494690,635.146790 583.954163,636.560669 581.917236,640.093933 
	C577.683350,647.438049 573.121521,654.592468 568.747925,661.856934 
	C564.235962,669.351318 559.787415,676.883850 554.866028,685.147034 
	C557.794678,684.909058 559.761963,684.851990 561.697510,684.574097 
	C569.727417,683.421509 577.745728,682.188354 585.771973,681.010010 
	C602.810242,678.508606 619.842529,675.963501 636.893250,673.549316 
	C650.828735,671.576233 664.787476,669.767090 679.522949,667.660339 
M754.193909,555.698608 
	C757.887268,550.151184 761.580627,544.603821 765.928955,538.072632 
	C762.669250,538.072632 761.025635,538.037170 759.383911,538.078308 
	C748.427856,538.352844 737.473145,538.835083 726.516174,538.891113 
	C700.384399,539.024719 674.251099,539.038635 648.119751,538.881348 
	C644.602783,538.860229 642.627991,540.062317 640.996826,542.958435 
	C638.227234,547.875916 635.194885,552.645325 632.280701,557.481628 
	C628.291138,564.102600 624.308777,570.727844 619.986084,577.911804 
	C624.982361,577.911804 629.119019,578.144104 633.222046,577.871643 
	C651.236633,576.675720 669.235291,575.237122 687.252014,574.076721 
	C700.655823,573.213379 714.082397,572.033875 727.491577,572.120056 
	C739.679565,572.198425 748.893799,568.698425 753.597717,556.761353 
	C753.657654,556.609253 753.772400,556.478760 754.193909,555.698608 
M652.842896,682.193542 
	C639.907837,684.123657 626.978882,686.096008 614.036316,687.974365 
	C592.898071,691.042114 571.749084,694.035278 550.609680,697.095093 
	C547.433716,697.554749 539.739075,707.500244 540.125916,710.578186 
	C540.203125,711.192810 540.564209,711.850037 540.976196,712.332458 
	C547.448792,719.913208 553.886108,727.526794 560.528259,734.957031 
	C561.372070,735.901001 563.444824,736.446899 564.743652,736.180420 
	C590.879517,730.817200 616.997253,725.362732 643.071899,719.710999 
	C644.918884,719.310730 646.851013,717.549194 647.985107,715.899292 
	C655.239563,705.345276 662.296936,694.655396 669.368958,683.977051 
	C670.038757,682.965759 670.362183,681.725037 671.193481,679.777771 
	C664.799744,680.610657 659.259888,681.332336 652.842896,682.193542 
M691.991272,614.518677 
	C698.434143,614.002075 704.904602,613.697266 711.305725,612.860840 
	C713.745300,612.542053 716.943970,611.669312 718.221436,609.907104 
	C724.169067,601.702209 729.578552,593.106323 735.129822,584.617065 
	C735.506042,584.041748 735.465149,583.193604 735.698669,582.093689 
	C731.984985,582.410706 728.719116,582.770325 725.443420,582.954895 
	C712.352722,583.692566 699.250122,584.243652 686.168152,585.108459 
	C663.173645,586.628601 640.198792,588.459656 617.195618,589.820190 
	C613.487244,590.039551 611.515137,591.338684 609.799561,594.326111 
	C606.573242,599.944458 603.034119,605.382263 599.694336,610.936768 
	C597.224060,615.045288 594.863403,619.219788 592.257629,623.702576 
	C625.797119,620.678711 658.452454,617.734497 691.991272,614.518677 
M588.329773,406.851318 
	C609.541870,395.497131 630.754028,384.142975 652.580261,372.460083 
	C641.345947,357.176697 630.451660,342.355774 619.174683,327.014313 
	C597.920837,352.424744 577.505615,376.832550 556.956360,401.400665 
	C560.018433,405.981293 563.052551,410.145630 565.662476,414.560760 
	C567.301392,417.333252 568.983948,417.190186 571.386475,415.866028 
	C576.772644,412.897400 582.227844,410.053864 588.329773,406.851318 
M647.785461,513.193481 
	C643.954773,514.670227 640.124146,516.146912 635.497559,517.930420 
	C639.322937,521.395874 639.047119,528.017456 645.650391,527.973206 
	C684.729858,527.711609 723.808777,527.364685 762.887695,527.022095 
	C763.468201,527.017029 764.045898,526.698975 764.739075,526.493042 
	C764.501099,525.738647 764.465942,525.215759 764.204651,524.858215 
	C754.904785,512.132996 745.431824,499.530029 736.366333,486.640411 
	C733.929810,483.176117 731.829163,482.972290 728.183472,484.302856 
	C701.676392,493.977325 675.096313,503.451721 647.785461,513.193481 
M697.979065,483.514954 
	C707.270142,480.142761 716.561218,476.770569 726.346497,473.218994 
	C720.057861,464.620850 714.270752,456.528503 708.194153,448.659668 
	C707.538574,447.810669 704.982605,447.685791 703.682190,448.189941 
	C684.932068,455.458771 666.233643,462.862030 647.549133,470.299133 
	C636.142944,474.839172 624.781921,479.492401 612.798218,484.338348 
	C617.538086,491.223419 622.212158,497.477936 626.261169,504.113861 
	C628.374146,507.576965 630.371338,507.935608 633.923218,506.634674 
	C654.992981,498.917389 676.135986,491.399719 697.979065,483.514954 
M687.028625,419.469025 
	C684.817200,414.682098 681.821960,413.902802 676.776794,416.065796 
	C655.546143,425.168030 634.121765,433.817902 612.780945,442.663910 
	C605.783264,445.564545 598.824036,448.557922 590.978943,451.876190 
	C595.536987,458.561432 599.809387,464.433075 603.629150,470.585754 
	C605.745178,473.994110 607.822449,474.398834 611.444336,472.932739 
	C631.622253,464.764923 651.907654,456.862946 672.136475,448.820221 
	C681.315247,445.170837 690.448425,441.406616 700.122375,437.483612 
	C695.644165,431.284271 691.571228,425.645905 687.028625,419.469025 
M651.306458,385.824585 
	C625.803162,399.370605 600.299866,412.916626 574.232971,426.762024 
	C577.203369,431.247131 579.940979,434.963409 582.211426,438.946014 
	C583.911865,441.928802 585.563538,442.135559 588.647583,440.836273 
	C609.463196,432.066956 630.375366,423.527039 651.255798,414.911560 
	C659.369629,411.563690 667.481934,408.212219 676.161072,404.628632 
	C671.112488,397.790649 666.169678,391.555847 661.779358,384.953644 
	C659.611694,381.693787 657.709778,381.634033 654.934570,383.656525 
	C653.998901,384.338470 652.950378,384.865631 651.306458,385.824585 
M609.630920,738.053772 
	C596.802185,740.855042 583.973450,743.656311 570.055237,746.695496 
	C581.044434,759.781067 591.310242,772.005188 602.277649,785.064758 
	C613.954895,767.533630 625.094177,750.810059 636.233521,734.086426 
	C635.950867,733.628174 635.668152,733.169922 635.385498,732.711670 
	C627.082336,734.470154 618.779114,736.228577 609.630920,738.053772 
z"/>
<path fill="#D46B93" opacity="1.000000" stroke="none" 
	d="
M133.691284,565.697632 
	C139.238052,556.333008 144.701263,547.345703 149.805649,538.158936 
	C150.632614,536.670593 150.609772,533.844238 149.728394,532.400269 
	C132.104187,503.527954 114.226921,474.810242 96.551903,445.968689 
	C86.426338,429.446167 76.583008,412.750732 66.574181,396.156372 
	C65.253761,393.967163 65.024422,392.464966 67.111206,390.232178 
	C82.031868,374.267487 96.739517,358.103668 111.503090,341.992310 
	C122.575668,329.908936 133.614365,317.794373 144.729340,305.750183 
	C145.491135,304.924713 146.738449,304.512024 147.814865,304.030029 
	C148.231659,303.843414 148.801147,303.999420 149.301056,303.996643 
	C209.400803,303.663483 269.500793,303.364532 329.599762,302.921295 
	C333.716858,302.890930 336.169159,304.171631 338.458557,307.695679 
	C360.020081,340.884766 381.818207,373.920044 403.482269,407.042694 
	C417.774017,428.893768 431.965118,450.810669 446.188202,472.706604 
	C460.856873,495.288452 475.518860,517.874695 490.154785,540.477783 
	C491.556366,542.642395 492.752411,544.940063 493.978699,547.063049 
	C479.044708,566.164124 464.333099,585.131592 449.455780,603.968140 
	C433.754974,623.847290 417.827789,643.547668 402.127594,663.427246 
	C389.190674,679.807922 376.513123,696.393250 363.588928,712.784058 
	C349.228210,730.996643 334.704285,749.080505 320.278839,767.242188 
	C312.709808,776.771667 305.231445,786.373291 297.614563,795.864014 
	C296.823608,796.849548 295.418335,797.788391 294.210541,797.915283 
	C289.123627,798.449463 284.007996,798.825928 278.894684,798.970947 
	C264.123840,799.389954 249.346146,799.575378 234.576477,800.026855 
	C215.858719,800.599060 197.145599,801.326660 178.431717,802.020752 
	C170.822266,802.302856 163.215073,802.652344 155.608658,803.009583 
	C149.166046,803.312073 142.631851,803.099243 136.307861,804.142761 
	C127.747658,805.555115 122.662704,800.986450 117.786903,795.285034 
	C113.281555,790.016724 108.782494,784.735962 104.089859,779.636292 
	C91.188248,765.615601 78.124947,751.743408 65.250290,737.698120 
	C58.799774,730.661072 52.620827,723.375061 46.213459,716.081543 
	C52.737022,704.906250 59.330799,693.638123 65.897728,682.354370 
	C74.573708,667.446716 83.227661,652.526367 91.892815,637.612427 
	C101.961037,620.283691 112.031982,602.956482 122.099968,585.627625 
	C125.898636,579.089355 129.692429,572.548340 133.691284,565.697632 
M296.000061,773.999451 
	C296.000061,773.999451 296.022278,774.042297 296.678833,773.863342 
	C297.754303,772.595703 298.870941,771.360474 299.899200,770.055603 
	C318.753571,746.129333 337.579712,722.180664 356.447113,698.264648 
	C395.625977,648.602051 434.811462,598.944580 474.058105,549.335571 
	C476.033356,546.838745 476.043915,545.071411 474.268616,542.353577 
	C426.018280,468.487366 377.858948,394.561646 329.757843,320.598175 
	C328.019287,317.924866 326.185120,316.826080 322.915161,316.899780 
	C300.615540,317.402405 278.311005,317.687744 255.071594,317.979248 
	C223.205566,318.297058 191.312515,317.134949 158.816803,319.329468 
	C159.994095,321.274536 160.693497,322.737793 161.665176,323.989746 
	C179.473953,346.935669 197.383911,369.803406 215.134521,392.794159 
	C245.054596,431.546997 274.887024,470.367554 304.733826,509.176880 
	C310.108398,516.165283 310.187622,517.404968 305.549286,524.686462 
	C276.707092,569.964294 247.854492,615.235596 218.960770,660.480530 
	C195.165787,697.741333 171.297989,734.955566 147.492294,772.209595 
	C144.060104,777.580627 140.795029,783.058472 137.739456,788.021118 
	C150.142380,788.021118 162.257446,788.272217 174.357727,787.956421 
	C188.950974,787.575623 203.528015,786.612549 218.118668,786.083984 
	C239.533020,785.308228 260.950104,784.445923 282.373047,784.173767 
	C288.239960,784.099182 291.796967,782.139709 294.551758,776.731323 
	C295.049805,775.825745 295.547882,774.920166 296.000061,773.999451 
M123.294479,724.819946 
	C138.359406,719.111267 153.483307,713.549927 168.437561,707.564697 
	C171.297638,706.419922 174.025696,704.000183 175.880997,701.481018 
	C180.111191,695.737122 183.815216,689.599976 187.623688,683.553772 
	C189.218781,681.021484 190.536392,678.314392 192.345734,675.021484 
	C189.799728,675.021484 188.301941,674.872559 186.841980,675.044617 
	C172.540176,676.730713 158.243408,678.459778 143.947708,680.197327 
	C125.386208,682.453125 106.816635,684.648315 88.276100,687.065674 
	C84.833450,687.514465 79.984787,687.810242 78.411163,690.034485 
	C72.992867,697.693298 68.738556,706.175537 64.006645,714.403381 
	C70.673973,721.785034 77.210121,728.856506 83.530388,736.115906 
	C85.512924,738.393066 87.355637,738.605408 90.001740,737.562561 
	C100.817490,733.300293 111.692619,729.188721 123.294479,724.819946 
M208.904602,625.222778 
	C197.021057,626.132874 185.146088,627.180664 173.251984,627.921265 
	C154.722961,629.075012 136.171356,629.885986 117.655373,631.206970 
	C115.052345,631.392700 111.535835,632.980713 110.249687,635.045532 
	C103.405846,646.032715 97.130257,657.374207 90.677002,668.604004 
	C89.412834,670.803894 88.232735,673.052124 86.486305,676.241516 
	C92.721077,675.401794 97.754120,674.643677 102.807190,674.058350 
	C118.088036,672.288208 133.382812,670.637573 148.660568,668.841736 
	C164.753372,666.950012 180.847000,665.048767 196.900833,662.862183 
	C199.009811,662.575012 201.513351,661.021301 202.755051,659.283203 
	C207.093491,653.210449 210.981125,646.813965 214.996643,640.512817 
	C218.300247,635.328857 221.542191,630.105652 224.689545,625.093994 
	C219.403778,625.093994 214.617569,625.093994 208.904602,625.222778 
M175.666779,538.000793 
	C169.162994,537.339111 164.459961,539.697998 161.972321,545.989807 
	C161.429825,547.361816 160.460632,548.562134 159.716980,549.858215 
	C155.462921,557.272095 151.217636,564.691101 146.450928,573.013550 
	C149.309097,573.013550 151.085770,573.041809 152.861328,573.009155 
	C171.129715,572.673340 189.398209,572.341187 207.666138,571.980652 
	C223.605087,571.666077 239.546967,571.418213 255.477142,570.848938 
	C257.394348,570.780457 259.924133,569.350525 261.014465,567.759644 
	C266.552155,559.679688 271.707245,551.337708 276.999817,543.089661 
	C279.207977,539.648438 281.424622,536.212708 283.911346,532.348816 
	C282.591736,532.148132 281.982635,531.950623 281.384583,531.979858 
	C267.135590,532.676147 252.882370,533.303894 238.641083,534.135132 
	C217.960754,535.342346 197.289185,536.699585 175.666779,538.000793 
M147.639236,583.997559 
	C142.066666,583.207581 137.834793,584.713623 136.075104,590.626099 
	C135.846924,591.392761 135.205612,592.030884 134.788895,592.747864 
	C129.645523,601.597168 124.508324,610.450012 118.989685,619.956299 
	C121.968506,619.956299 124.092346,620.092468 126.193939,619.933777 
	C138.250168,619.023560 150.291214,617.887024 162.356155,617.123352 
	C180.892349,615.950134 199.445633,615.049500 217.987823,613.967224 
	C226.301010,613.481995 234.487518,613.625366 238.812988,603.748291 
	C242.079758,596.288635 247.299652,589.684326 251.508636,582.926758 
	C240.903442,582.926758 230.663986,582.823181 220.427292,582.947571 
	C196.484680,583.238586 172.543396,583.638916 147.639236,583.997559 
M223.305237,446.791901 
	C193.827957,457.330566 164.350693,467.869263 134.064529,478.697144 
	C139.854675,488.228577 145.163757,496.968079 150.615463,505.942383 
	C186.073486,494.140533 221.288071,482.419708 256.473999,470.708435 
	C256.275665,469.908997 256.286774,469.523041 256.104889,469.283783 
	C251.887833,463.736145 247.605286,458.237823 243.425491,452.662445 
	C235.855515,442.564789 235.880127,442.546326 223.305237,446.791901 
M100.066475,410.613892 
	C126.055565,396.606445 152.044647,382.598999 178.409485,368.389038 
	C167.179977,353.867981 156.479401,340.030914 145.370529,325.665863 
	C143.945953,327.301483 142.990997,328.447357 141.984421,329.545959 
	C130.754410,341.802277 119.475578,354.014221 108.294624,366.315094 
	C100.473114,374.920013 92.840782,383.697205 84.990913,392.275696 
	C83.108620,394.332733 82.675781,395.847961 84.438980,398.282104 
	C86.868767,401.636475 89.008110,405.241760 90.912766,408.925262 
	C93.064346,413.086304 95.633179,414.244171 100.066475,410.613892 
M177.257874,508.774750 
	C170.558151,510.998688 163.858429,513.222656 156.918320,515.526367 
	C157.508606,516.832336 157.829025,517.577942 158.178848,518.309448 
	C161.261703,524.756042 164.693298,528.657043 173.533600,527.382690 
	C188.897278,525.167847 204.561157,524.962036 220.110626,524.127197 
	C241.469879,522.980469 262.839905,522.034668 284.204895,520.995178 
	C286.021942,520.906738 287.945740,521.104126 289.627869,520.567139 
	C292.671051,519.595642 294.043915,518.036926 291.435455,514.770203 
	C283.157623,504.403290 274.931183,493.982849 267.101685,483.278229 
	C264.812073,480.147827 262.981323,480.041412 259.715881,481.145813 
	C232.505676,490.348419 205.238907,499.383881 177.257874,508.774750 
M164.523880,456.019562 
	C185.596268,448.505005 206.668655,440.990448 228.390335,433.244354 
	C225.192490,429.124054 222.359619,425.504364 219.558899,421.859955 
	C209.698990,409.029449 214.299225,410.926910 199.239166,415.532654 
	C174.614075,423.063721 150.189819,431.251434 125.680061,439.159729 
	C121.484512,440.513428 117.284988,441.854767 112.392876,443.424683 
	C117.457787,451.803040 121.995148,459.504272 126.818802,467.021729 
	C127.374123,467.887177 129.737961,468.349121 130.902740,467.948853 
	C141.901672,464.169464 152.822327,460.162262 164.523880,456.019562 
M125.264603,409.806091 
	C116.924576,414.224030 108.584549,418.641968 100.291046,423.035278 
	C104.942764,434.017090 104.955467,434.057343 115.629112,430.687958 
	C135.422974,424.439636 155.211319,418.173431 174.979904,411.845703 
	C184.573700,408.774872 194.117661,405.548279 204.390167,402.159302 
	C198.336899,394.278046 192.703583,386.743805 186.757767,379.464813 
	C186.045090,378.592346 183.347702,378.489777 182.062531,379.088013 
	C177.246033,381.329865 172.622955,383.990601 167.947250,386.530914 
	C153.923431,394.149994 139.908981,401.786316 125.264603,409.806091 
M122.804207,778.682190 
	C125.234673,782.885254 126.439362,779.390381 127.489235,777.757874 
	C137.720444,761.848633 147.868912,745.886108 158.000824,729.913330 
	C159.448624,727.630920 160.682999,725.213074 162.749603,721.562195 
	C139.187607,730.568848 117.082863,739.018494 94.262062,747.741821 
	C104.153008,758.416321 113.279968,768.266235 122.804207,778.682190 
z"/>
<path fill="#FEA1AB" opacity="1.000000" stroke="none" 
	d="
M800.977905,740.489868 
	C792.816406,751.338501 784.660950,762.191650 776.490417,773.033508 
	C773.191528,777.410950 770.044922,781.925476 766.444763,786.041565 
	C765.142151,787.530945 762.805786,788.446716 760.781067,788.885132 
	C758.551758,789.367737 756.138306,788.986572 753.805237,789.004822 
	C710.008301,789.347656 666.211426,789.694458 622.414490,790.037781 
	C620.597778,790.052002 618.780823,790.039612 616.296387,790.039612 
	C617.383911,788.194397 618.130249,786.785522 619.006409,785.462585 
	C641.864014,750.945862 664.733032,716.436707 687.604248,681.928894 
	C718.653381,635.082520 749.706604,588.238708 780.756165,541.392517 
	C785.265381,534.589294 785.125854,529.572083 780.046204,522.649292 
	C747.627136,478.466644 715.169006,434.312622 682.753967,390.126953 
	C667.331787,369.104675 651.972534,348.036285 636.602234,326.975983 
	C635.842957,325.935577 635.251221,324.772858 634.471863,323.486084 
	C641.066040,322.976105 647.266602,322.231903 653.482666,322.065918 
	C671.435425,321.586517 689.395386,321.386932 707.350464,320.982758 
	C716.642883,320.773621 725.930908,320.363922 735.710999,320.438965 
	C740.953125,327.529175 745.823853,334.144806 750.428162,340.940918 
	C756.720581,350.228516 762.810242,359.653534 768.599426,368.989471 
	C765.784973,369.191132 763.357971,369.422974 760.930908,369.654816 
	C761.512634,372.158875 761.377747,375.195618 762.783752,377.086945 
	C783.447021,404.882812 804.345886,432.503448 825.089417,460.240021 
	C827.210999,463.076874 829.563477,464.558075 833.394470,464.110229 
	C840.401184,474.198761 847.099243,484.151978 853.390930,494.069489 
	C851.075012,494.639496 847.789185,494.918243 847.550964,495.921051 
	C847.096069,497.835571 848.281311,500.195343 848.992859,502.300293 
	C849.232666,503.009552 850.082825,503.524384 850.682617,504.098267 
	C857.633179,510.748596 864.512756,517.476868 871.613403,523.963013 
	C872.908020,525.145569 875.110718,525.333923 876.933350,526.341125 
	C882.107422,534.646423 887.038086,542.735168 892.467590,550.473938 
	C894.995972,554.077698 895.269714,556.917786 893.188721,560.876404 
	C879.103394,587.670593 865.249634,614.586609 851.336365,641.471130 
	C836.734863,669.685608 822.120300,697.893555 807.596863,726.148254 
	C805.801086,729.641846 804.530457,733.405396 803.016479,737.043884 
	C803.016479,737.043884 802.994873,736.997925 802.723755,737.117798 
	C802.299561,737.845398 802.146606,738.453125 801.993652,739.060852 
	C801.993591,739.060852 801.983459,738.987610 801.725952,739.128540 
	C801.304932,739.676331 801.141418,740.083069 800.977905,740.489868 
z"/>
<path fill="#FDF3F8" opacity="1.000000" stroke="none" 
	d="
M853.797302,494.105225 
	C847.099243,484.151978 840.401184,474.198761 833.531433,463.742523 
	C835.142700,459.400604 833.722961,456.269989 831.356750,453.194580 
	C824.670837,444.504669 818.021973,435.784760 811.469482,426.993958 
	C798.585693,409.709351 785.776978,392.368866 772.960205,374.743958 
	C772.623474,373.989807 772.263855,373.543213 771.947021,373.070435 
	C771.989868,373.044189 771.892517,373.067932 771.850952,372.813690 
	C771.541138,372.365723 771.272949,372.171997 771.001160,371.990234 
	C770.997559,372.002228 771.021729,371.996002 770.955078,371.746185 
	C770.617676,371.302979 770.346924,371.109589 770.057739,370.963867 
	C770.039307,371.011536 770.104004,370.932159 770.091431,370.628387 
	C769.712708,369.885315 769.346497,369.446014 768.987976,369.004456 
	C768.995667,369.002136 768.986816,369.019653 768.986816,369.019653 
	C762.810242,359.653534 756.720581,350.228516 750.428162,340.940918 
	C745.823853,334.144806 740.953125,327.529175 736.185669,320.493347 
	C751.611206,319.769043 767.053711,319.432892 782.492493,318.974457 
	C788.116455,318.807465 793.743225,318.477509 799.346741,317.975677 
	C802.731628,317.672516 804.739319,318.809937 806.605713,321.775787 
	C834.001038,365.308777 861.542297,408.749939 889.033325,452.222748 
	C907.983521,482.189423 926.853821,512.206848 945.930298,542.092834 
	C947.905579,545.187256 947.625671,547.149109 945.540100,549.898438 
	C898.558167,611.833923 851.653809,673.828186 804.727661,735.805969 
	C804.429016,736.200256 804.031494,736.519775 803.348328,736.959106 
	C804.530457,733.405396 805.801086,729.641846 807.596863,726.148254 
	C822.120300,697.893555 836.734863,669.685608 851.336365,641.471130 
	C865.249634,614.586609 879.103394,587.670593 893.188721,560.876404 
	C895.269714,556.917786 894.995972,554.077698 892.467590,550.473938 
	C887.038086,542.735168 882.107422,534.646423 877.291992,526.184570 
	C880.266541,522.355347 879.566345,519.331299 876.749695,516.564514 
	C869.113220,509.063477 861.449951,501.589752 853.797302,494.105225 
z"/>
<path fill="#FFA3C2" opacity="1.000000" stroke="none" 
	d="
M679.129395,667.772766 
	C664.787476,669.767090 650.828735,671.576233 636.893250,673.549316 
	C619.842529,675.963501 602.810242,678.508606 585.771973,681.010010 
	C577.745728,682.188354 569.727417,683.421509 561.697510,684.574097 
	C559.761963,684.851990 557.794678,684.909058 554.866028,685.147034 
	C559.787415,676.883850 564.235962,669.351318 568.747925,661.856934 
	C573.121521,654.592468 577.683350,647.438049 581.917236,640.093933 
	C583.954163,636.560669 586.494690,635.146790 590.678833,634.856262 
	C603.896362,633.938538 617.068420,632.382324 630.267212,631.173767 
	C642.649475,630.039978 655.050720,629.110901 667.430420,627.951233 
	C680.128967,626.761597 692.811218,625.397217 705.502319,624.127075 
	C706.314880,624.045776 707.142639,624.116394 708.145935,624.116394 
	C708.066895,624.698242 708.144653,625.215576 707.930908,625.542053 
	C699.185364,638.900635 690.422852,652.248047 681.622620,665.570557 
	C681.089600,666.377441 680.230408,666.968750 679.129395,667.772766 
z"/>
<path fill="#FFA3C2" opacity="1.000000" stroke="none" 
	d="
M754.027710,556.018433 
	C753.772400,556.478760 753.657654,556.609253 753.597717,556.761353 
	C748.893799,568.698425 739.679565,572.198425 727.491577,572.120056 
	C714.082397,572.033875 700.655823,573.213379 687.252014,574.076721 
	C669.235291,575.237122 651.236633,576.675720 633.222046,577.871643 
	C629.119019,578.144104 624.982361,577.911804 619.986084,577.911804 
	C624.308777,570.727844 628.291138,564.102600 632.280701,557.481628 
	C635.194885,552.645325 638.227234,547.875916 640.996826,542.958435 
	C642.627991,540.062317 644.602783,538.860229 648.119751,538.881348 
	C674.251099,539.038635 700.384399,539.024719 726.516174,538.891113 
	C737.473145,538.835083 748.427856,538.352844 759.383911,538.078308 
	C761.025635,538.037170 762.669250,538.072632 765.928955,538.072632 
	C761.580627,544.603821 757.887268,550.151184 754.027710,556.018433 
z"/>
<path fill="#FFA3C2" opacity="1.000000" stroke="none" 
	d="
M653.281433,682.123779 
	C659.259888,681.332336 664.799744,680.610657 671.193481,679.777771 
	C670.362183,681.725037 670.038757,682.965759 669.368958,683.977051 
	C662.296936,694.655396 655.239563,705.345276 647.985107,715.899292 
	C646.851013,717.549194 644.918884,719.310730 643.071899,719.710999 
	C616.997253,725.362732 590.879517,730.817200 564.743652,736.180420 
	C563.444824,736.446899 561.372070,735.901001 560.528259,734.957031 
	C553.886108,727.526794 547.448792,719.913208 540.976196,712.332458 
	C540.564209,711.850037 540.203125,711.192810 540.125916,710.578186 
	C539.739075,707.500244 547.433716,697.554749 550.609680,697.095093 
	C571.749084,694.035278 592.898071,691.042114 614.036316,687.974365 
	C626.978882,686.096008 639.907837,684.123657 653.281433,682.123779 
z"/>
<path fill="#FFA2C2" opacity="1.000000" stroke="none" 
	d="
M691.549561,614.654541 
	C658.452454,617.734497 625.797119,620.678711 592.257629,623.702576 
	C594.863403,619.219788 597.224060,615.045288 599.694336,610.936768 
	C603.034119,605.382263 606.573242,599.944458 609.799561,594.326111 
	C611.515137,591.338684 613.487244,590.039551 617.195618,589.820190 
	C640.198792,588.459656 663.173645,586.628601 686.168152,585.108459 
	C699.250122,584.243652 712.352722,583.692566 725.443420,582.954895 
	C728.719116,582.770325 731.984985,582.410706 735.698669,582.093689 
	C735.465149,583.193604 735.506042,584.041748 735.129822,584.617065 
	C729.578552,593.106323 724.169067,601.702209 718.221436,609.907104 
	C716.943970,611.669312 713.745300,612.542053 711.305725,612.860840 
	C704.904602,613.697266 698.434143,614.002075 691.549561,614.654541 
z"/>
<path fill="#FFA3C2" opacity="1.000000" stroke="none" 
	d="
M587.992310,407.005371 
	C582.227844,410.053864 576.772644,412.897400 571.386475,415.866028 
	C568.983948,417.190186 567.301392,417.333252 565.662476,414.560760 
	C563.052551,410.145630 560.018433,405.981293 556.956360,401.400665 
	C577.505615,376.832550 597.920837,352.424744 619.174683,327.014313 
	C630.451660,342.355774 641.345947,357.176697 652.580261,372.460083 
	C630.754028,384.142975 609.541870,395.497131 587.992310,407.005371 
z"/>
<path fill="#FFA3C2" opacity="1.000000" stroke="none" 
	d="
M648.162354,513.091431 
	C675.096313,503.451721 701.676392,493.977325 728.183472,484.302856 
	C731.829163,482.972290 733.929810,483.176117 736.366333,486.640411 
	C745.431824,499.530029 754.904785,512.132996 764.204651,524.858215 
	C764.465942,525.215759 764.501099,525.738647 764.739075,526.493042 
	C764.045898,526.698975 763.468201,527.017029 762.887695,527.022095 
	C723.808777,527.364685 684.729858,527.711609 645.650391,527.973206 
	C639.047119,528.017456 639.322937,521.395874 635.497559,517.930420 
	C640.124146,516.146912 643.954773,514.670227 648.162354,513.091431 
z"/>
<path fill="#FFA2C2" opacity="1.000000" stroke="none" 
	d="
M697.616699,483.664978 
	C676.135986,491.399719 654.992981,498.917389 633.923218,506.634674 
	C630.371338,507.935608 628.374146,507.576965 626.261169,504.113861 
	C622.212158,497.477936 617.538086,491.223419 612.798218,484.338348 
	C624.781921,479.492401 636.142944,474.839172 647.549133,470.299133 
	C666.233643,462.862030 684.932068,455.458771 703.682190,448.189941 
	C704.982605,447.685791 707.538574,447.810669 708.194153,448.659668 
	C714.270752,456.528503 720.057861,464.620850 726.346497,473.218994 
	C716.561218,476.770569 707.270142,480.142761 697.616699,483.664978 
z"/>
<path fill="#FFA2C2" opacity="1.000000" stroke="none" 
	d="
M687.263428,419.738281 
	C691.571228,425.645905 695.644165,431.284271 700.122375,437.483612 
	C690.448425,441.406616 681.315247,445.170837 672.136475,448.820221 
	C651.907654,456.862946 631.622253,464.764923 611.444336,472.932739 
	C607.822449,474.398834 605.745178,473.994110 603.629150,470.585754 
	C599.809387,464.433075 595.536987,458.561432 590.978943,451.876190 
	C598.824036,448.557922 605.783264,445.564545 612.780945,442.663910 
	C634.121765,433.817902 655.546143,425.168030 676.776794,416.065796 
	C681.821960,413.902802 684.817200,414.682098 687.263428,419.738281 
z"/>
<path fill="#FFA2C2" opacity="1.000000" stroke="none" 
	d="
M651.629944,385.644043 
	C652.950378,384.865631 653.998901,384.338470 654.934570,383.656525 
	C657.709778,381.634033 659.611694,381.693787 661.779358,384.953644 
	C666.169678,391.555847 671.112488,397.790649 676.161072,404.628632 
	C667.481934,408.212219 659.369629,411.563690 651.255798,414.911560 
	C630.375366,423.527039 609.463196,432.066956 588.647583,440.836273 
	C585.563538,442.135559 583.911865,441.928802 582.211426,438.946014 
	C579.940979,434.963409 577.203369,431.247131 574.232971,426.762024 
	C600.299866,412.916626 625.803162,399.370605 651.629944,385.644043 
z"/>
<path fill="#FEA2C1" opacity="1.000000" stroke="none" 
	d="
M610.053467,738.020386 
	C618.779114,736.228577 627.082336,734.470154 635.385498,732.711670 
	C635.668152,733.169922 635.950867,733.628174 636.233521,734.086426 
	C625.094177,750.810059 613.954895,767.533630 602.277649,785.064758 
	C591.310242,772.005188 581.044434,759.781067 570.055237,746.695496 
	C583.973450,743.656311 596.802185,740.855042 610.053467,738.020386 
z"/>
<path fill="#FDF3F8" opacity="1.000000" stroke="none" 
	d="
M802.243408,738.878052 
	C802.146606,738.453125 802.299561,737.845398 802.749023,737.116333 
	C802.861389,737.561768 802.677307,738.128479 802.243408,738.878052 
z"/>
<path fill="#FDF3F8" opacity="1.000000" stroke="none" 
	d="
M801.197510,740.262939 
	C801.141418,740.083069 801.304932,739.676331 801.762024,739.120361 
	C801.842773,739.326111 801.629883,739.681030 801.197510,740.262939 
z"/>
<path fill="#FEA1AB" opacity="1.000000" stroke="none" 
	d="
M293.966614,776.998474 
	C291.796967,782.139709 288.239960,784.099182 282.373047,784.173767 
	C260.950104,784.445923 239.533020,785.308228 218.118668,786.083984 
	C203.528015,786.612549 188.950974,787.575623 174.357727,787.956421 
	C162.257446,788.272217 150.142380,788.021118 137.739456,788.021118 
	C140.795029,783.058472 144.060104,777.580627 147.492294,772.209595 
	C171.297989,734.955566 195.165787,697.741333 218.960770,660.480530 
	C247.854492,615.235596 276.707092,569.964294 305.549286,524.686462 
	C310.187622,517.404968 310.108398,516.165283 304.733826,509.176880 
	C274.887024,470.367554 245.054596,431.546997 215.134521,392.794159 
	C197.383911,369.803406 179.473953,346.935669 161.665176,323.989746 
	C160.693497,322.737793 159.994095,321.274536 158.816803,319.329468 
	C191.312515,317.134949 223.205566,318.297058 255.510345,318.375000 
	C256.108154,319.408691 256.101562,320.160645 256.450653,320.667786 
	C264.067963,331.733734 271.770447,342.741272 279.347534,353.834473 
	C281.761322,357.368408 283.862183,361.116089 285.972534,365.144653 
	C286.201721,368.142456 285.724579,371.348480 287.073242,373.278931 
	C292.854370,381.553986 299.119568,389.494965 305.308258,397.480286 
	C315.149933,410.179138 325.201904,422.717285 334.899780,435.524231 
	C339.261383,441.284058 342.983002,447.528534 347.093994,453.901550 
	C347.809296,454.497040 348.425629,454.744049 349.020142,454.996033 
	C348.998291,455.001038 349.003693,454.957092 348.944489,455.326172 
	C351.403809,459.764648 353.860687,463.873779 356.453339,467.895386 
	C362.287079,476.944305 368.188049,485.949860 374.069855,495.376892 
	C375.139191,498.416504 375.635498,501.532104 377.380768,503.586884 
	C380.865387,507.689514 385.035004,511.210297 389.016998,515.233276 
	C389.422333,515.664429 389.732422,515.833618 390.018219,516.003540 
	C389.993927,516.004272 390.008606,515.957947 389.976624,516.275940 
	C390.313385,517.061157 390.682098,517.528320 391.023895,517.990417 
	C390.996948,517.985291 391.021027,517.936096 391.030914,518.291748 
	C397.405762,528.187683 403.869354,537.665222 410.027618,547.337158 
	C410.935760,548.763428 411.106232,551.434753 410.402191,552.973938 
	C407.775726,558.716248 404.632050,564.221252 401.701965,569.825562 
	C377.487061,616.140259 353.292938,662.465820 329.055511,708.768738 
	C320.720459,724.691956 312.184784,740.510864 303.939789,756.480164 
	C300.997986,762.177917 298.644348,768.179443 296.022278,774.042297 
	C296.022278,774.042297 296.000061,773.999451 295.670471,774.005493 
	C294.882782,775.007202 294.424683,776.002869 293.966614,776.998474 
z"/>
<path fill="#FDF3F8" opacity="1.000000" stroke="none" 
	d="
M286.106262,364.765961 
	C283.862183,361.116089 281.761322,357.368408 279.347534,353.834473 
	C271.770447,342.741272 264.067963,331.733734 256.450653,320.667786 
	C256.101562,320.160645 256.108154,319.408691 255.978577,318.406952 
	C278.311005,317.687744 300.615540,317.402405 322.915161,316.899780 
	C326.185120,316.826080 328.019287,317.924866 329.757843,320.598175 
	C377.858948,394.561646 426.018280,468.487366 474.268616,542.353577 
	C476.043915,545.071411 476.033356,546.838745 474.058105,549.335571 
	C434.811462,598.944580 395.625977,648.602051 356.447113,698.264648 
	C337.579712,722.180664 318.753571,746.129333 299.899200,770.055603 
	C298.870941,771.360474 297.754303,772.595703 296.350555,773.952820 
	C298.644348,768.179443 300.997986,762.177917 303.939789,756.480164 
	C312.184784,740.510864 320.720459,724.691956 329.055511,708.768738 
	C353.292938,662.465820 377.487061,616.140259 401.701965,569.825562 
	C404.632050,564.221252 407.775726,558.716248 410.402191,552.973938 
	C411.106232,551.434753 410.935760,548.763428 410.027618,547.337158 
	C403.869354,537.665222 397.405762,528.187683 391.385437,518.170654 
	C394.809418,519.548767 397.210938,523.986694 402.608490,519.570312 
	C401.847107,517.514832 401.544373,514.523560 399.918976,512.732605 
	C395.693268,508.076385 390.642761,504.171326 386.387939,499.538116 
	C382.909058,495.749847 379.002045,494.253082 374.061676,494.973083 
	C368.188049,485.949860 362.287079,476.944305 356.453339,467.895386 
	C353.860687,463.873779 351.403809,459.764648 349.330139,455.318542 
	C357.551727,452.737213 358.146729,451.226410 353.670685,445.415466 
	C334.292816,420.258545 314.876556,395.130676 295.641418,369.864929 
	C293.081299,366.502167 290.286255,364.600525 286.106262,364.765961 
z"/>
<path fill="#FFA3C2" opacity="1.000000" stroke="none" 
	d="
M122.920166,724.920776 
	C111.692619,729.188721 100.817490,733.300293 90.001740,737.562561 
	C87.355637,738.605408 85.512924,738.393066 83.530388,736.115906 
	C77.210121,728.856506 70.673973,721.785034 64.006645,714.403381 
	C68.738556,706.175537 72.992867,697.693298 78.411163,690.034485 
	C79.984787,687.810242 84.833450,687.514465 88.276100,687.065674 
	C106.816635,684.648315 125.386208,682.453125 143.947708,680.197327 
	C158.243408,678.459778 172.540176,676.730713 186.841980,675.044617 
	C188.301941,674.872559 189.799728,675.021484 192.345734,675.021484 
	C190.536392,678.314392 189.218781,681.021484 187.623688,683.553772 
	C183.815216,689.599976 180.111191,695.737122 175.880997,701.481018 
	C174.025696,704.000183 171.297638,706.419922 168.437561,707.564697 
	C153.483307,713.549927 138.359406,719.111267 122.920166,724.920776 
z"/>
<path fill="#FFA3C2" opacity="1.000000" stroke="none" 
	d="
M209.367981,625.158386 
	C214.617569,625.093994 219.403778,625.093994 224.689545,625.093994 
	C221.542191,630.105652 218.300247,635.328857 214.996643,640.512817 
	C210.981125,646.813965 207.093491,653.210449 202.755051,659.283203 
	C201.513351,661.021301 199.009811,662.575012 196.900833,662.862183 
	C180.847000,665.048767 164.753372,666.950012 148.660568,668.841736 
	C133.382812,670.637573 118.088036,672.288208 102.807190,674.058350 
	C97.754120,674.643677 92.721077,675.401794 86.486305,676.241516 
	C88.232735,673.052124 89.412834,670.803894 90.677002,668.604004 
	C97.130257,657.374207 103.405846,646.032715 110.249687,635.045532 
	C111.535835,632.980713 115.052345,631.392700 117.655373,631.206970 
	C136.171356,629.885986 154.722961,629.075012 173.251984,627.921265 
	C185.146088,627.180664 197.021057,626.132874 209.367981,625.158386 
z"/>
<path fill="#FFA3C2" opacity="1.000000" stroke="none" 
	d="
M176.140320,537.996826 
	C197.289185,536.699585 217.960754,535.342346 238.641083,534.135132 
	C252.882370,533.303894 267.135590,532.676147 281.384583,531.979858 
	C281.982635,531.950623 282.591736,532.148132 283.911346,532.348816 
	C281.424622,536.212708 279.207977,539.648438 276.999817,543.089661 
	C271.707245,551.337708 266.552155,559.679688 261.014465,567.759644 
	C259.924133,569.350525 257.394348,570.780457 255.477142,570.848938 
	C239.546967,571.418213 223.605087,571.666077 207.666138,571.980652 
	C189.398209,572.341187 171.129715,572.673340 152.861328,573.009155 
	C151.085770,573.041809 149.309097,573.013550 146.450928,573.013550 
	C151.217636,564.691101 155.462921,557.272095 159.716980,549.858215 
	C160.460632,548.562134 161.429825,547.361816 161.972321,545.989807 
	C164.459961,539.697998 169.162994,537.339111 176.140320,537.996826 
z"/>
<path fill="#FFA3C2" opacity="1.000000" stroke="none" 
	d="
M148.120407,583.996277 
	C172.543396,583.638916 196.484680,583.238586 220.427292,582.947571 
	C230.663986,582.823181 240.903442,582.926758 251.508636,582.926758 
	C247.299652,589.684326 242.079758,596.288635 238.812988,603.748291 
	C234.487518,613.625366 226.301010,613.481995 217.987823,613.967224 
	C199.445633,615.049500 180.892349,615.950134 162.356155,617.123352 
	C150.291214,617.887024 138.250168,619.023560 126.193939,619.933777 
	C124.092346,620.092468 121.968506,619.956299 118.989685,619.956299 
	C124.508324,610.450012 129.645523,601.597168 134.788895,592.747864 
	C135.205612,592.030884 135.846924,591.392761 136.075104,590.626099 
	C137.834793,584.713623 142.066666,583.207581 148.120407,583.996277 
z"/>
<path fill="#FFA3C2" opacity="1.000000" stroke="none" 
	d="
M223.666779,446.641418 
	C235.880127,442.546326 235.855515,442.564789 243.425491,452.662445 
	C247.605286,458.237823 251.887833,463.736145 256.104889,469.283783 
	C256.286774,469.523041 256.275665,469.908997 256.473999,470.708435 
	C221.288071,482.419708 186.073486,494.140533 150.615463,505.942383 
	C145.163757,496.968079 139.854675,488.228577 134.064529,478.697144 
	C164.350693,467.869263 193.827957,457.330566 223.666779,446.641418 
z"/>
<path fill="#FFA3C2" opacity="1.000000" stroke="none" 
	d="
M99.761482,410.834839 
	C95.633179,414.244171 93.064346,413.086304 90.912766,408.925262 
	C89.008110,405.241760 86.868767,401.636475 84.438980,398.282104 
	C82.675781,395.847961 83.108620,394.332733 84.990913,392.275696 
	C92.840782,383.697205 100.473114,374.920013 108.294624,366.315094 
	C119.475578,354.014221 130.754410,341.802277 141.984421,329.545959 
	C142.990997,328.447357 143.945953,327.301483 145.370529,325.665863 
	C156.479401,340.030914 167.179977,353.867981 178.409485,368.389038 
	C152.044647,382.598999 126.055565,396.606445 99.761482,410.834839 
z"/>
<path fill="#FFA3C2" opacity="1.000000" stroke="none" 
	d="
M177.623535,508.622253 
	C205.238907,499.383881 232.505676,490.348419 259.715881,481.145813 
	C262.981323,480.041412 264.812073,480.147827 267.101685,483.278229 
	C274.931183,493.982849 283.157623,504.403290 291.435455,514.770203 
	C294.043915,518.036926 292.671051,519.595642 289.627869,520.567139 
	C287.945740,521.104126 286.021942,520.906738 284.204895,520.995178 
	C262.839905,522.034668 241.469879,522.980469 220.110626,524.127197 
	C204.561157,524.962036 188.897278,525.167847 173.533600,527.382690 
	C164.693298,528.657043 161.261703,524.756042 158.178848,518.309448 
	C157.829025,517.577942 157.508606,516.832336 156.918320,515.526367 
	C163.858429,513.222656 170.558151,510.998688 177.623535,508.622253 
z"/>
<path fill="#FFA2C2" opacity="1.000000" stroke="none" 
	d="
M164.144714,456.120178 
	C152.822327,460.162262 141.901672,464.169464 130.902740,467.948853 
	C129.737961,468.349121 127.374123,467.887177 126.818802,467.021729 
	C121.995148,459.504272 117.457787,451.803040 112.392876,443.424683 
	C117.284988,441.854767 121.484512,440.513428 125.680061,439.159729 
	C150.189819,431.251434 174.614075,423.063721 199.239166,415.532654 
	C214.299225,410.926910 209.698990,409.029449 219.558899,421.859955 
	C222.359619,425.504364 225.192490,429.124054 228.390335,433.244354 
	C206.668655,440.990448 185.596268,448.505005 164.144714,456.120178 
z"/>
<path fill="#FEA2C1" opacity="1.000000" stroke="none" 
	d="
M125.577744,409.611023 
	C139.908981,401.786316 153.923431,394.149994 167.947250,386.530914 
	C172.622955,383.990601 177.246033,381.329865 182.062531,379.088013 
	C183.347702,378.489777 186.045090,378.592346 186.757767,379.464813 
	C192.703583,386.743805 198.336899,394.278046 204.390167,402.159302 
	C194.117661,405.548279 184.573700,408.774872 174.979904,411.845703 
	C155.211319,418.173431 135.422974,424.439636 115.629112,430.687958 
	C104.955467,434.057343 104.942764,434.017090 100.291046,423.035278 
	C108.584549,418.641968 116.924576,414.224030 125.577744,409.611023 
z"/>
<path fill="#FEA2C1" opacity="1.000000" stroke="none" 
	d="
M122.605568,778.399170 
	C113.279968,768.266235 104.153008,758.416321 94.262062,747.741821 
	C117.082863,739.018494 139.187607,730.568848 162.749603,721.562195 
	C160.682999,725.213074 159.448624,727.630920 158.000824,729.913330 
	C147.868912,745.886108 137.720444,761.848633 127.489235,777.757874 
	C126.439362,779.390381 125.234673,782.885254 122.605568,778.399170 
z"/>
<path fill="#FDF3F8" opacity="1.000000" stroke="none" 
	d="
M294.259155,776.864868 
	C294.424683,776.002869 294.882782,775.007202 295.693420,774.013062 
	C295.547882,774.920166 295.049805,775.825745 294.259155,776.864868 
z"/>
<path fill="#D56E94" opacity="1.000000" stroke="none" 
	d="
M772.937256,375.051453 
	C785.776978,392.368866 798.585693,409.709351 811.469482,426.993958 
	C818.021973,435.784760 824.670837,444.504669 831.356750,453.194580 
	C833.722961,456.269989 835.142700,459.400604 833.222717,463.607239 
	C829.563477,464.558075 827.210999,463.076874 825.089417,460.240021 
	C804.345886,432.503448 783.447021,404.882812 762.783752,377.086945 
	C761.377747,375.195618 761.512634,372.158875 760.930908,369.654816 
	C763.357971,369.422974 765.784973,369.191132 768.599426,368.989471 
	C768.986816,369.019653 768.995667,369.002136 768.988281,369.314301 
	C769.355286,370.061707 769.729675,370.496918 770.104004,370.932159 
	C770.104004,370.932159 770.039307,371.011536 770.116821,371.216980 
	C770.470154,371.613647 770.745972,371.804810 771.021729,371.996002 
	C771.021729,371.996002 770.997559,372.002228 771.068726,372.228882 
	C771.307739,372.761749 771.558594,372.965851 771.892517,373.067932 
	C771.892517,373.067932 771.989868,373.044189 771.966797,373.363342 
	C772.274841,374.138824 772.606079,374.595123 772.937256,375.051453 
z"/>
<path fill="#D56E94" opacity="1.000000" stroke="none" 
	d="
M853.390930,494.069458 
	C861.449951,501.589752 869.113220,509.063477 876.749695,516.564514 
	C879.566345,519.331299 880.266541,522.355347 877.252808,525.824707 
	C875.110718,525.333923 872.908020,525.145569 871.613403,523.963013 
	C864.512756,517.476868 857.633179,510.748596 850.682617,504.098267 
	C850.082825,503.524384 849.232666,503.009552 848.992859,502.300293 
	C848.281311,500.195343 847.096069,497.835571 847.550964,495.921051 
	C847.789185,494.918243 851.075012,494.639496 853.390930,494.069458 
z"/>
<path fill="#FEA1AB" opacity="1.000000" stroke="none" 
	d="
M770.091431,370.628387 
	C769.729675,370.496918 769.355286,370.061707 768.980591,369.316589 
	C769.346497,369.446014 769.712708,369.885315 770.091431,370.628387 
z"/>
<path fill="#FEA1AB" opacity="1.000000" stroke="none" 
	d="
M772.960205,374.743927 
	C772.606079,374.595123 772.274841,374.138824 771.923950,373.389587 
	C772.263855,373.543213 772.623474,373.989807 772.960205,374.743927 
z"/>
<path fill="#FEA1AB" opacity="1.000000" stroke="none" 
	d="
M770.955078,371.746185 
	C770.745972,371.804810 770.470154,371.613647 770.135315,371.169342 
	C770.346924,371.109589 770.617676,371.302979 770.955078,371.746185 
z"/>
<path fill="#FEA1AB" opacity="1.000000" stroke="none" 
	d="
M771.850952,372.813690 
	C771.558594,372.965851 771.307739,372.761749 771.072327,372.216919 
	C771.272949,372.171997 771.541138,372.365723 771.850952,372.813690 
z"/>
<path fill="#D56E95" opacity="1.000000" stroke="none" 
	d="
M285.972534,365.144653 
	C290.286255,364.600525 293.081299,366.502167 295.641418,369.864929 
	C314.876556,395.130676 334.292816,420.258545 353.670685,445.415466 
	C358.146729,451.226410 357.551727,452.737213 349.389343,454.949463 
	C349.003693,454.957092 348.998291,455.001038 348.891235,454.691956 
	C348.187744,454.106293 347.591370,453.829712 346.994995,453.553101 
	C342.983002,447.528534 339.261383,441.284058 334.899780,435.524231 
	C325.201904,422.717285 315.149933,410.179138 305.308258,397.480286 
	C299.119568,389.494965 292.854370,381.553986 287.073242,373.278931 
	C285.724579,371.348480 286.201721,368.142456 285.972534,365.144653 
z"/>
<path fill="#D56E95" opacity="1.000000" stroke="none" 
	d="
M374.069855,495.376892 
	C379.002045,494.253082 382.909058,495.749847 386.387939,499.538116 
	C390.642761,504.171326 395.693268,508.076385 399.918976,512.732605 
	C401.544373,514.523560 401.847107,517.514832 402.608490,519.570312 
	C397.210938,523.986694 394.809418,519.548767 391.375549,517.815063 
	C391.021027,517.936096 390.996948,517.985291 391.171814,517.677002 
	C390.900665,516.898438 390.454651,516.428162 390.008606,515.957947 
	C390.008606,515.957947 389.993927,516.004272 389.945648,515.730225 
	C389.572174,515.294617 389.246948,515.132996 388.921753,514.971375 
	C385.035004,511.210297 380.865387,507.689514 377.380768,503.586884 
	C375.635498,501.532104 375.139191,498.416504 374.069855,495.376892 
z"/>
<path fill="#FDF3F8" opacity="1.000000" stroke="none" 
	d="
M389.976624,516.275940 
	C390.454651,516.428162 390.900665,516.898438 391.198761,517.682129 
	C390.682098,517.528320 390.313385,517.061157 389.976624,516.275940 
z"/>
<path fill="#FDF3F8" opacity="1.000000" stroke="none" 
	d="
M347.093994,453.901550 
	C347.591370,453.829712 348.187744,454.106293 348.913055,454.686951 
	C348.425629,454.744049 347.809296,454.497040 347.093994,453.901550 
z"/>
<path fill="#FDF3F8" opacity="1.000000" stroke="none" 
	d="
M389.016998,515.233276 
	C389.246948,515.132996 389.572174,515.294617 389.969940,515.729553 
	C389.732422,515.833618 389.422333,515.664429 389.016998,515.233276 
z"/>
</svg>