<svg version="1.1" id="Layer_1" xmlns="http://www.w3.org/2000/svg" xmlns:xlink="http://www.w3.org/1999/xlink" x="0px" y="0px"
	 width="100%" viewBox="0 0 1000 1000" enable-background="new 0 0 1000 1000" xml:space="preserve">
<path fill="#FFFFFF" opacity="0" stroke="none" 
	d="
M467.000000,1001.000000 
	C311.333344,1001.000000 156.166672,1001.000000 1.000000,1001.000000 
	C1.000000,667.666687 1.000000,334.333344 1.000000,1.000000 
	C334.333344,1.000000 667.666687,1.000000 1001.000000,1.000000 
	C1001.000000,334.333344 1001.000000,667.666687 1001.000000,1001.000000 
	C823.166687,1001.000000 645.333313,1001.000000 467.000000,1001.000000 
M210.497696,764.002197 
	C219.585922,776.080078 228.601318,788.214355 237.856598,800.162781 
	C238.985687,801.620483 241.359299,802.767395 243.230652,802.886353 
	C252.489807,803.474731 261.771637,803.848755 271.049774,803.970154 
	C302.990387,804.388245 334.932404,804.708496 366.874603,804.984131 
	C380.040100,805.097717 393.217072,804.714966 406.368774,805.155823 
	C411.114532,805.314819 413.832581,803.122864 416.404419,800.028320 
	C429.141174,784.702698 441.759491,769.278381 454.543549,753.992554 
	C466.336212,739.892151 478.286133,725.923279 490.398956,711.622375 
	C484.906189,702.757263 479.519226,694.200684 474.268616,685.561279 
	C461.817627,665.074158 449.420013,644.554626 437.021606,624.035645 
	C419.523529,595.076904 402.096436,566.074890 384.458618,537.201599 
	C383.038971,534.877625 383.122314,533.726074 384.613403,531.638916 
	C389.574890,524.694458 394.259735,517.551819 399.028015,510.469971 
	C423.682831,473.852875 448.330627,437.231049 473.080933,400.462158 
	C467.277954,393.600403 461.700317,387.092285 456.218933,380.504120 
	C446.952057,369.366150 437.756989,358.168457 428.511169,347.012939 
	C420.629913,337.503815 412.784790,327.963379 404.787384,318.552643 
	C401.943604,315.206238 399.201385,311.204865 395.489685,309.331757 
	C392.076324,307.609161 387.428589,308.176636 383.314117,308.028748 
	C371.542023,307.605743 359.765198,307.307251 347.989075,307.005798 
	C333.881104,306.644684 319.771088,306.364410 305.663635,305.985809 
	C295.386749,305.709991 285.114807,305.219421 274.836823,305.022308 
	C253.396454,304.611145 231.953552,304.331451 210.511719,303.995728 
	C209.013840,303.972290 207.393188,304.292877 206.041473,303.832062 
	C201.944916,302.435577 199.207855,304.446838 197.302567,307.460876 
	C186.335953,324.809235 175.605057,342.306488 164.659790,359.668488 
	C143.991013,392.454498 123.256454,425.199127 102.501190,457.930481 
	C83.690918,487.594543 64.816681,517.218079 45.987743,546.832581 
	C51.746170,554.291504 57.394821,561.499023 62.925770,568.795715 
	C73.841644,583.196411 84.661728,597.669678 95.577179,612.070740 
	C111.660675,633.290161 127.819435,654.452637 143.895218,675.677917 
	C154.803879,690.080994 165.621811,704.552734 176.486679,718.989014 
	C187.650833,733.822998 198.822708,748.651184 210.497696,764.002197 
M914.505005,628.000549 
	C910.592773,621.152527 906.743408,614.267578 902.756775,607.463135 
	C889.217834,584.354614 875.582336,561.302307 862.176147,538.117310 
	C861.336975,536.666199 861.443665,533.854492 862.304016,532.365417 
	C868.218079,522.129028 874.378357,512.031982 880.593201,501.972687 
	C901.308228,468.444061 922.113586,434.971252 942.789673,401.418732 
	C945.671997,396.741425 949.140198,391.701202 942.120667,387.288239 
	C941.493958,386.894287 941.297607,385.875061 940.754150,385.280884 
	C926.117859,369.278839 911.497620,353.261810 896.797363,337.318634 
	C887.246643,326.960388 877.619507,316.671112 867.897522,306.474030 
	C866.732361,305.252014 864.766724,304.124573 863.153259,304.097961 
	C834.551025,303.625275 805.946655,303.185516 777.341248,303.035370 
	C745.346924,302.867432 713.350952,303.049652 681.356262,302.920380 
	C677.911133,302.906464 675.744507,304.126984 674.014099,306.885254 
	C671.221802,311.336212 668.309082,315.711609 665.451355,320.121582 
	C650.806274,342.721161 636.210266,365.352753 621.507507,387.914764 
	C597.031494,425.474396 572.490662,462.991852 547.970276,500.522552 
	C537.854309,516.005981 527.720459,531.477722 517.724670,546.756226 
	C519.662109,549.270020 521.151367,551.240479 522.680115,553.179749 
	C533.468750,566.865234 544.265564,580.544373 555.059631,594.225525 
	C565.450317,607.395508 575.841736,620.564819 586.231262,633.735718 
	C596.822266,647.161865 607.414307,660.587341 618.000244,674.017456 
	C627.262939,685.768738 636.501160,697.539368 645.780518,709.277466 
	C656.490417,722.825012 667.242371,736.339355 677.960327,749.880554 
	C690.105103,765.224487 702.204102,780.604919 714.428528,795.885071 
	C715.279480,796.948792 716.953491,797.762817 718.333191,797.920837 
	C723.083557,798.464905 727.868469,798.785461 732.648743,798.976501 
	C750.694824,799.697815 768.744690,800.325806 786.792480,801.005249 
	C804.174561,801.659729 821.554199,802.384766 838.938171,802.983337 
	C851.208740,803.405884 863.548523,803.022400 875.736755,804.223145 
	C884.331604,805.069885 889.411926,800.969238 894.218079,795.232605 
	C895.057617,794.230469 895.626526,792.993958 896.501587,792.030273 
	C906.847839,780.636230 917.193970,769.241760 927.609009,757.910767 
	C940.354553,744.044189 953.165588,730.237793 965.972656,716.378906 
	C948.858093,686.970093 931.881348,657.798035 914.505005,628.000549 
z"/>
<path fill="#D46B93" opacity="1.000000" stroke="none" 
	d="
M210.244461,763.742065 
	C198.822708,748.651184 187.650833,733.822998 176.486679,718.989014 
	C165.621811,704.552734 154.803879,690.080994 143.895218,675.677917 
	C127.819435,654.452637 111.660675,633.290161 95.577179,612.070740 
	C84.661728,597.669678 73.841644,583.196411 62.925770,568.795715 
	C57.394821,561.499023 51.746170,554.291504 45.987743,546.832581 
	C64.816681,517.218079 83.690918,487.594543 102.501190,457.930481 
	C123.256454,425.199127 143.991013,392.454498 164.659790,359.668488 
	C175.605057,342.306488 186.335953,324.809235 197.302567,307.460876 
	C199.207855,304.446838 201.944916,302.435577 206.041473,303.832062 
	C207.393188,304.292877 209.013840,303.972290 210.511719,303.995728 
	C231.953552,304.331451 253.396454,304.611145 274.836823,305.022308 
	C285.114807,305.219421 295.386749,305.709991 305.663635,305.985809 
	C319.771088,306.364410 333.881104,306.644684 347.989075,307.005798 
	C359.765198,307.307251 371.542023,307.605743 383.314117,308.028748 
	C387.428589,308.176636 392.076324,307.609161 395.489685,309.331757 
	C399.201385,311.204865 401.943604,315.206238 404.787384,318.552643 
	C412.784790,327.963379 420.629913,337.503815 428.511169,347.012939 
	C437.756989,358.168457 446.952057,369.366150 456.218933,380.504120 
	C461.700317,387.092285 467.277954,393.600403 473.080933,400.462158 
	C448.330627,437.231049 423.682831,473.852875 399.028015,510.469971 
	C394.259735,517.551819 389.574890,524.694458 384.613403,531.638916 
	C383.122314,533.726074 383.038971,534.877625 384.458618,537.201599 
	C402.096436,566.074890 419.523529,595.076904 437.021606,624.035645 
	C449.420013,644.554626 461.817627,665.074158 474.268616,685.561279 
	C479.519226,694.200684 484.906189,702.757263 490.398956,711.622375 
	C478.286133,725.923279 466.336212,739.892151 454.543549,753.992554 
	C441.759491,769.278381 429.141174,784.702698 416.404419,800.028320 
	C413.832581,803.122864 411.114532,805.314819 406.368774,805.155823 
	C393.217072,804.714966 380.040100,805.097717 366.874603,804.984131 
	C334.932404,804.708496 302.990387,804.388245 271.049774,803.970154 
	C261.771637,803.848755 252.489807,803.474731 243.230652,802.886353 
	C241.359299,802.767395 238.985687,801.620483 237.856598,800.162781 
	C228.601318,788.214355 219.585922,776.080078 210.244461,763.742065 
M210.177216,739.554565 
	C210.459061,739.866455 210.740891,740.178345 211.095596,741.125000 
	C212.767365,743.177551 214.502731,745.181946 216.100479,747.290588 
	C225.825912,760.125854 235.435928,773.050354 245.328049,785.755310 
	C246.605453,787.395935 249.267288,788.809998 251.324219,788.861023 
	C272.779938,789.393311 294.242218,789.755615 315.704498,789.906616 
	C341.029999,790.084778 366.357269,790.013245 391.683777,790.026245 
	C392.879059,790.026855 394.074432,789.797485 395.625488,789.638794 
	C394.630280,788.020203 393.971863,786.876587 393.245239,785.778076 
	C369.035492,749.178467 344.836975,712.571350 320.599365,675.990173 
	C290.572113,630.670776 260.541016,585.353943 230.413116,540.101501 
	C227.840912,536.238098 226.965683,532.538391 229.297897,528.488831 
	C231.931351,523.916199 234.508453,519.267273 237.607071,515.013489 
	C257.353699,487.905182 277.248322,460.904663 297.073120,433.853241 
	C320.234802,402.248566 343.380707,370.632385 366.518738,339.010406 
	C370.249664,333.911469 373.904144,328.756622 377.593964,323.627625 
	C377.359833,323.085480 377.125702,322.543365 376.891571,322.001221 
	C362.112000,322.001221 347.332397,322.001953 332.552826,321.999847 
	C331.386627,321.999695 330.219574,322.005096 329.054352,321.965637 
	C311.312897,321.365875 293.571686,320.759064 274.926300,320.053986 
	C257.977325,319.702301 241.027649,319.380096 224.080109,318.969604 
	C221.285873,318.901917 218.502441,318.431854 215.711472,318.175293 
	C211.358246,317.775085 207.829025,317.665344 204.792694,322.500824 
	C158.917084,395.559845 112.811333,468.474640 66.566673,541.300781 
	C64.108543,545.171814 64.543503,547.410095 67.088951,550.762024 
	C108.385643,605.142334 149.540970,659.629944 190.788849,714.047424 
	C196.692078,721.835388 202.910843,729.384277 209.005020,736.997986 
	C209.005020,736.997986 208.954437,736.995178 208.923538,737.614929 
	C209.284439,738.096924 209.645355,738.578918 210.015961,738.987854 
	C210.015961,738.987854 209.944122,738.971924 210.177216,739.554565 
M446.826080,667.704468 
	C441.289490,658.630554 435.602539,649.643555 430.287323,640.441772 
	C428.037262,636.546326 425.310181,634.978882 420.733765,634.844421 
	C412.138031,634.591919 403.561096,633.574707 394.986023,632.772278 
	C381.970306,631.554443 368.962585,630.251526 355.952026,628.979004 
	C346.730499,628.077087 337.513489,627.126587 328.287689,626.270691 
	C320.148621,625.515686 312.000153,624.861694 303.144501,624.102051 
	C310.836060,635.824585 318.232269,646.826294 325.326141,658.019592 
	C329.026184,663.857727 332.427673,668.246948 340.752380,668.778625 
	C355.555420,669.724121 370.219238,672.826599 384.946106,674.994446 
	C402.452423,677.571350 419.961182,680.132202 437.474304,682.662415 
	C443.700775,683.561951 449.943146,684.351318 457.283478,685.339905 
	C453.416809,678.860107 450.283295,673.608887 446.826080,667.704468 
M280.515076,538.925415 
	C269.494415,538.925415 258.473785,538.925415 247.096008,538.925415 
	C247.748734,540.183960 248.238571,541.383545 248.940842,542.442139 
	C254.454041,550.752686 260.138214,558.953796 265.475555,567.375000 
	C267.242706,570.163208 269.314911,570.947021 272.426270,571.074036 
	C285.689789,571.615173 298.949463,572.306519 312.198242,573.139343 
	C337.019196,574.699707 361.830933,576.406067 386.649048,578.012573 
	C388.188965,578.112244 389.750824,577.872681 391.989655,577.754822 
	C384.265259,565.053955 377.044952,552.952087 369.482208,541.068115 
	C368.635529,539.737671 365.850098,539.070740 363.958740,539.060913 
	C336.476562,538.919250 308.993469,538.942383 280.515076,538.925415 
M421.578156,730.968140 
	C429.841919,732.674988 438.076569,734.555054 446.392151,735.953735 
	C448.221069,736.261353 451.000519,735.465759 452.210693,734.142944 
	C458.588928,727.170898 464.678375,719.927490 470.656860,712.605835 
	C471.441681,711.644653 471.601196,709.415955 471.049377,708.246704 
	C468.118073,702.035706 465.010071,696.993408 456.437164,696.331299 
	C441.475464,695.175903 426.656708,692.185120 411.773529,689.994019 
	C394.436737,687.441772 377.096924,684.910156 359.754761,682.394592 
	C353.675873,681.512817 347.586243,680.705261 340.351532,679.704773 
	C341.762024,682.228149 342.388184,683.542969 343.185516,684.744263 
	C349.982544,694.984070 356.653748,705.314514 363.754669,715.340149 
	C365.274780,717.486328 368.199188,719.311768 370.794495,719.913086 
	C387.395874,723.758911 404.086029,727.221802 421.578156,730.968140 
M289.550262,603.929749 
	C292.788788,610.863770 297.927429,614.392883 305.818665,613.064758 
	C306.455902,612.957581 307.143066,613.124817 307.804779,613.188293 
	C321.145660,614.466858 334.483826,615.775085 347.827789,617.021057 
	C356.235962,617.806152 364.658752,618.436829 373.064331,619.247070 
	C388.451508,620.730347 403.830811,622.295349 420.111084,623.915588 
	C413.255646,612.696167 406.906830,602.217224 400.412201,591.829529 
	C399.836456,590.908691 398.345398,590.134216 397.220886,590.046997 
	C383.183472,588.957703 369.141022,587.912903 355.088043,587.050049 
	C341.682037,586.226990 328.256989,585.714417 314.850342,584.900513 
	C307.914886,584.479431 301.011353,583.500305 294.074402,583.145447 
	C288.223999,582.846069 282.346191,583.083740 275.849854,583.083740 
	C280.297699,589.845032 284.729706,596.582397 289.550262,603.929749 
M370.294281,378.184540 
	C381.839630,384.434143 393.362671,390.725433 404.936523,396.921814 
	C416.807800,403.277435 428.689758,409.616730 440.684052,415.733795 
	C441.982819,416.396149 444.908264,416.197296 445.626831,415.271118 
	C448.969574,410.962616 451.801117,406.257507 455.030853,401.368439 
	C434.420319,376.741913 413.925110,352.253235 392.784271,326.993073 
	C381.418335,342.494293 370.595398,357.254974 359.413666,372.505005 
	C363.216553,374.509766 366.417358,376.197144 370.294281,378.184540 
M292.092896,487.451111 
	C288.814453,486.267151 285.475800,485.223938 282.276642,483.854736 
	C279.718475,482.759857 278.212402,483.095917 276.518982,485.572357 
	C272.307709,491.730713 267.643494,497.577271 263.240356,503.606903 
	C257.809357,511.044098 252.458511,518.539856 246.628082,526.627563 
	C257.024139,527.083740 266.555542,527.802368 276.091187,527.863953 
	C304.547943,528.047791 333.006348,527.974487 361.464111,528.000610 
	C370.530365,528.008972 372.503540,526.577454 375.708862,517.397278 
	C348.078674,507.522705 320.444458,497.646637 292.092896,487.451111 
M291.149719,465.662262 
	C289.453766,468.057068 287.757843,470.451874 285.750183,473.286865 
	C294.180786,476.325470 302.089874,479.178741 310.000793,482.026978 
	C333.108490,490.346527 356.207153,498.691559 379.350677,506.910339 
	C380.654602,507.373383 383.136810,507.382477 383.705688,506.604614 
	C388.942535,499.444489 393.878143,492.063995 399.049713,484.531647 
	C397.159882,483.593170 396.013184,482.918427 394.791351,482.432465 
	C365.804199,470.902954 336.822937,459.358002 307.766083,448.006592 
	C306.557526,447.534424 304.021301,448.413116 303.139862,449.501617 
	C299.072571,454.524292 295.372650,459.844421 291.149719,465.662262 
M391.764069,439.782227 
	C371.964417,431.569366 352.178131,423.323822 332.332672,415.223145 
	C331.116608,414.726807 328.692749,414.799744 328.082092,415.583130 
	C322.592560,422.625397 317.383301,429.886139 311.938293,437.291351 
	C313.229279,437.991028 313.912781,438.455811 314.662506,438.754181 
	C342.139954,449.689850 369.627075,460.601135 397.104187,471.537628 
	C405.415283,474.845581 405.383636,474.861420 410.386139,467.423065 
	C413.766693,462.396423 417.213318,457.414185 421.053467,451.792725 
	C410.858521,447.576172 401.682037,443.780823 391.764069,439.782227 
M424.014130,419.489685 
	C419.025970,416.829498 414.041748,414.161835 409.048889,411.510529 
	C392.306549,402.619995 375.533081,393.787598 358.831787,384.820679 
	C352.762268,381.562012 352.790924,381.382385 348.792297,386.835419 
	C344.543457,392.629700 340.399445,398.500854 335.952789,404.696381 
	C344.831757,408.355804 352.962402,411.703247 361.090302,415.057343 
	C381.969849,423.673615 402.837463,432.319244 423.752502,440.848541 
	C425.070862,441.386200 427.607330,441.670776 428.131134,440.978668 
	C431.475952,436.559448 434.415344,431.833374 437.700043,426.889435 
	C432.832031,424.257019 428.750580,422.049988 424.014130,419.489685 
M435.255157,745.045898 
	C415.699402,740.947937 396.143646,736.849976 376.587860,732.752075 
	C376.342499,733.253540 376.097107,733.755005 375.851715,734.256470 
	C387.001099,750.965454 398.150452,767.674500 409.753510,785.063477 
	C420.817291,771.864563 431.063690,759.640686 441.731384,746.914246 
	C439.135895,746.119690 437.598389,745.649048 435.255157,745.045898 
z"/>
<path fill="#D46B93" opacity="1.000000" stroke="none" 
	d="
M914.704834,628.313232 
	C931.881348,657.798035 948.858093,686.970093 965.972656,716.378906 
	C953.165588,730.237793 940.354553,744.044189 927.609009,757.910767 
	C917.193970,769.241760 906.847839,780.636230 896.501587,792.030273 
	C895.626526,792.993958 895.057617,794.230469 894.218079,795.232605 
	C889.411926,800.969238 884.331604,805.069885 875.736755,804.223145 
	C863.548523,803.022400 851.208740,803.405884 838.938171,802.983337 
	C821.554199,802.384766 804.174561,801.659729 786.792480,801.005249 
	C768.744690,800.325806 750.694824,799.697815 732.648743,798.976501 
	C727.868469,798.785461 723.083557,798.464905 718.333191,797.920837 
	C716.953491,797.762817 715.279480,796.948792 714.428528,795.885071 
	C702.204102,780.604919 690.105103,765.224487 677.960327,749.880554 
	C667.242371,736.339355 656.490417,722.825012 645.780518,709.277466 
	C636.501160,697.539368 627.262939,685.768738 618.000244,674.017456 
	C607.414307,660.587341 596.822266,647.161865 586.231262,633.735718 
	C575.841736,620.564819 565.450317,607.395508 555.059631,594.225525 
	C544.265564,580.544373 533.468750,566.865234 522.680115,553.179749 
	C521.151367,551.240479 519.662109,549.270020 517.724670,546.756226 
	C527.720459,531.477722 537.854309,516.005981 547.970276,500.522552 
	C572.490662,462.991852 597.031494,425.474396 621.507507,387.914764 
	C636.210266,365.352753 650.806274,342.721161 665.451355,320.121582 
	C668.309082,315.711609 671.221802,311.336212 674.014099,306.885254 
	C675.744507,304.126984 677.911133,302.906464 681.356262,302.920380 
	C713.350952,303.049652 745.346924,302.867432 777.341248,303.035370 
	C805.946655,303.185516 834.551025,303.625275 863.153259,304.097961 
	C864.766724,304.124573 866.732361,305.252014 867.897522,306.474030 
	C877.619507,316.671112 887.246643,326.960388 896.797363,337.318634 
	C911.497620,353.261810 926.117859,369.278839 940.754150,385.280884 
	C941.297607,385.875061 941.493958,386.894287 942.120667,387.288239 
	C949.140198,391.701202 945.671997,396.741425 942.789673,401.418732 
	C922.113586,434.971252 901.308228,468.444061 880.593201,501.972687 
	C874.378357,512.031982 868.218079,522.129028 862.304016,532.365417 
	C861.443665,533.854492 861.336975,536.666199 862.176147,538.117310 
	C875.582336,561.302307 889.217834,584.354614 902.756775,607.463135 
	C906.743408,614.267578 910.592773,621.152527 914.704834,628.313232 
M717.554199,776.290527 
	C719.890015,779.493286 720.915344,783.864746 726.245544,784.061096 
	C738.836670,784.524963 751.408752,785.514709 764.000366,785.951660 
	C787.407288,786.764160 810.822937,787.324463 834.233948,788.022278 
	C836.211365,788.081177 838.180908,788.539490 840.155334,788.548584 
	C851.500061,788.601135 862.845154,788.574158 874.401245,788.574158 
	C874.050354,787.849365 873.882507,787.392761 873.627563,786.991699 
	C859.451233,764.696167 845.277466,742.399109 831.082581,720.115417 
	C800.104553,671.484802 769.122681,622.856689 738.126770,574.237488 
	C727.585754,557.703247 716.970642,541.216248 706.444336,524.672729 
	C701.927124,517.573364 702.036255,515.903320 706.950317,509.549774 
	C728.776550,481.330170 750.633728,453.134430 772.432556,424.893646 
	C796.867615,393.237671 821.257202,361.546600 845.649963,329.858063 
	C848.177551,326.574524 850.592468,323.204346 853.059692,319.874359 
	C852.801758,319.263947 852.543823,318.653564 852.285889,318.043152 
	C820.187866,318.043152 788.089905,318.043152 755.054749,318.010132 
	C733.412415,317.668060 711.767578,317.425232 690.129883,316.894043 
	C686.148621,316.796326 683.890991,318.059875 681.718994,321.401886 
	C633.889771,394.997925 585.966064,468.532776 537.916199,541.984924 
	C535.671570,545.416260 536.420471,547.391052 538.631104,550.184570 
	C570.566345,590.539124 602.393555,630.979126 634.281494,671.371155 
	C661.814514,706.246948 689.391785,741.087708 717.554199,776.290527 
M867.249146,680.066406 
	C851.648071,678.303833 836.046997,676.541321 820.445923,674.778809 
	C820.273987,675.260864 820.102051,675.742859 819.930115,676.224915 
	C824.415527,683.368896 829.101196,690.396912 833.323364,697.693237 
	C836.745056,703.606384 841.274292,707.357117 847.989502,709.333374 
	C855.926697,711.669189 863.519409,715.170898 871.272644,718.137817 
	C888.172668,724.605103 905.054871,731.121155 922.024719,737.400024 
	C923.623596,737.991699 926.540161,737.766785 927.575073,736.694824 
	C934.582886,729.437134 941.248962,721.849487 948.016235,714.378662 
	C943.252441,706.128174 938.751709,698.193237 934.061401,690.372009 
	C933.411865,689.288879 931.897034,688.233215 930.662415,688.069031 
	C919.512451,686.586060 908.331360,685.339294 897.167969,683.953735 
	C887.485718,682.752014 877.814575,681.459900 867.249146,680.066406 
M852.245544,667.096375 
	C856.830811,667.734497 861.408752,668.431824 866.002747,668.999451 
	C878.803284,670.581177 891.609192,672.119812 904.415527,673.654053 
	C911.089417,674.453552 917.768738,675.208069 925.017456,676.049255 
	C924.465027,674.481812 924.281494,673.512939 923.815918,672.706970 
	C916.588013,660.197205 909.495056,647.602539 901.902649,635.316833 
	C900.602173,633.212463 897.213196,631.422668 894.655029,631.225403 
	C873.509766,629.594849 852.335388,628.333801 831.164795,627.042480 
	C816.638733,626.156311 802.104736,625.400391 787.563293,624.585632 
	C787.544067,624.971497 787.392273,625.376282 787.531860,625.595825 
	C794.926331,637.226624 802.305908,648.867371 809.825134,660.417297 
	C810.549500,661.530029 812.088867,662.630127 813.365356,662.785156 
	C826.010681,664.320984 838.680298,665.656189 852.245544,667.096375 
M752.186768,569.723267 
	C753.568970,570.142517 754.935608,570.858459 756.335999,570.932312 
	C764.617249,571.368896 772.903748,571.759033 781.193359,571.972107 
	C797.139160,572.382019 813.087036,572.740356 829.036194,572.970276 
	C839.527527,573.121460 850.022705,573.024780 860.515991,572.999695 
	C861.898193,572.996399 863.279846,572.758362 865.399353,572.560059 
	C858.907837,561.412781 852.867981,550.936096 846.658447,540.560913 
	C846.112671,539.649048 844.491211,539.015930 843.309692,538.908386 
	C835.226257,538.172852 827.134033,537.487427 819.031067,537.023132 
	C805.123657,536.226257 791.202026,535.677124 777.295044,534.873596 
	C770.851074,534.501221 764.436340,533.628723 757.992737,533.244202 
	C748.289673,532.665222 738.572937,532.315308 727.685181,531.813843 
	C736.101807,544.916016 743.880981,557.025879 752.186768,569.723267 
M770.980713,599.531555 
	C773.300415,603.179382 775.491150,606.919983 778.012146,610.422974 
	C778.857422,611.597595 780.460144,612.683655 781.862976,612.912354 
	C785.613953,613.523865 789.439453,613.734314 793.244019,613.952393 
	C811.804016,615.016174 830.370544,615.968262 848.926575,617.095398 
	C855.538391,617.496948 862.117737,618.423828 868.728577,618.853149 
	C876.547668,619.360962 884.384888,619.590027 892.992737,619.974670 
	C886.199341,608.198120 879.997498,597.223328 873.481201,586.438477 
	C872.680115,585.112610 870.216431,584.166870 868.493164,584.118713 
	C850.532898,583.616638 832.565796,583.364380 814.601929,582.980835 
	C802.312012,582.718384 790.025024,582.313416 777.734924,582.061462 
	C772.050476,581.944885 766.361633,582.041504 759.833374,582.041504 
	C763.808350,588.317688 767.176270,593.635437 770.980713,599.531555 
M872.840820,487.308319 
	C874.498535,484.492188 876.156250,481.676056 877.962402,478.607727 
	C844.863892,466.855652 812.188477,455.197205 779.421326,443.802643 
	C777.933167,443.285126 774.983337,444.608917 773.796936,445.999054 
	C768.953552,451.674011 764.502075,457.685944 759.969482,463.622070 
	C758.319702,465.782745 756.846313,468.078156 755.103577,470.583557 
	C790.976318,482.512115 826.203552,494.226074 861.331116,505.906860 
	C865.288818,499.509766 868.871582,493.718750 872.840820,487.308319 
M874.887146,390.581482 
	C888.023071,397.756042 901.177185,404.897675 914.279419,412.133209 
	C916.875061,413.566650 918.552490,413.058502 920.017578,410.557617 
	C922.537964,406.255096 925.409546,402.143341 927.680237,397.718811 
	C928.338318,396.436615 928.086426,393.818909 927.166077,392.736450 
	C921.356018,385.902679 915.245239,379.324341 909.224487,372.669983 
	C900.193909,362.688904 891.186829,352.686249 882.108521,342.748779 
	C877.009521,337.167206 871.787415,331.698151 866.376953,325.917908 
	C855.287354,340.305084 844.605408,354.163300 833.613892,368.423187 
	C847.591858,375.909485 860.925354,383.050598 874.887146,390.581482 
M771.386169,523.037903 
	C779.972778,523.679260 788.554443,524.397827 797.147034,524.945190 
	C813.185181,525.966736 829.227905,526.920837 845.275146,527.783325 
	C846.403931,527.843933 848.067932,527.253845 848.657349,526.397766 
	C850.973755,523.033813 852.959412,519.442200 855.043823,515.975159 
	C854.311279,515.458069 854.072266,515.193298 853.777710,515.095154 
	C819.281189,503.590790 784.789612,492.071442 750.241699,480.723419 
	C749.069275,480.338318 746.771912,481.240295 745.939087,482.289032 
	C737.481506,492.939178 729.183350,503.717285 720.956360,514.547485 
	C720.094727,515.681763 719.228638,517.752319 719.709290,518.721924 
	C720.273193,519.859558 722.278259,520.831299 723.709167,520.906433 
	C739.277466,521.723938 754.855835,522.351379 771.386169,523.037903 
M787.973328,427.491180 
	C786.635132,429.308228 785.296936,431.125305 783.776733,433.189453 
	C784.984192,433.687195 785.565796,433.956482 786.166992,434.170563 
	C816.229553,444.874786 846.286316,455.595123 876.362854,466.259735 
	C884.043274,468.983093 884.117859,468.929077 888.372314,462.010101 
	C892.061279,456.010803 895.631531,449.938477 899.316589,443.794403 
	C897.967957,443.063690 897.420898,442.647461 896.803772,442.450043 
	C865.627502,432.475922 834.459839,422.473541 803.217163,412.711609 
	C801.763489,412.257385 799.073608,413.473145 797.922485,414.767548 
	C794.510864,418.603729 791.581665,422.868958 787.973328,427.491180 
M826.263733,408.207916 
	C832.901855,410.340454 839.538208,412.478668 846.178528,414.604462 
	C864.523315,420.477295 882.851929,426.402527 901.244873,432.120636 
	C902.974182,432.658203 905.914368,432.619049 906.897583,431.556763 
	C909.032471,429.249969 910.265015,426.108093 911.882080,423.280304 
	C885.708557,409.068329 860.199463,395.099792 834.566528,381.362427 
	C825.611633,376.563263 827.533020,376.244446 821.230774,384.325897 
	C816.699402,390.136383 812.316101,396.062256 807.632324,402.246155 
	C814.146301,404.348846 819.820862,406.180573 826.263733,408.207916 
M899.828308,767.311768 
	C905.560181,760.954468 911.291992,754.597168 917.564941,747.639648 
	C894.750305,738.942078 872.667786,730.523621 850.585205,722.105164 
	C850.323120,722.469543 850.061096,722.833984 849.799011,723.198364 
	C862.089661,742.491272 874.380371,761.784180 886.767578,781.228638 
	C891.443115,776.302002 895.434082,772.096741 899.828308,767.311768 
z"/>
<path fill="#FEA1AB" opacity="1.000000" stroke="none" 
	d="
M275.830414,320.153900 
	C293.571686,320.759064 311.312897,321.365875 329.054352,321.965637 
	C330.219574,322.005096 331.386627,321.999695 332.552826,321.999847 
	C347.332397,322.001953 362.112000,322.001221 376.891571,322.001221 
	C377.125702,322.543365 377.359833,323.085480 377.593964,323.627625 
	C373.904144,328.756622 370.249664,333.911469 366.518738,339.010406 
	C343.380707,370.632385 320.234802,402.248566 297.073120,433.853241 
	C277.248322,460.904663 257.353699,487.905182 237.607071,515.013489 
	C234.508453,519.267273 231.931351,523.916199 229.297897,528.488831 
	C226.965683,532.538391 227.840912,536.238098 230.413116,540.101501 
	C260.541016,585.353943 290.572113,630.670776 320.599365,675.990173 
	C344.836975,712.571350 369.035492,749.178467 393.245239,785.778076 
	C393.971863,786.876587 394.630280,788.020203 395.625488,789.638794 
	C394.074432,789.797485 392.879059,790.026855 391.683777,790.026245 
	C366.357269,790.013245 341.029999,790.084778 315.704498,789.906616 
	C294.242218,789.755615 272.779938,789.393311 251.324219,788.861023 
	C249.267288,788.809998 246.605453,787.395935 245.328049,785.755310 
	C235.435928,773.050354 225.825912,760.125854 216.100479,747.290588 
	C214.502731,745.181946 212.767365,743.177551 210.977234,740.483032 
	C210.553955,739.551392 210.249039,739.261658 209.944122,738.971924 
	C209.944122,738.971924 210.015961,738.987854 210.005768,738.702332 
	C209.648529,737.942932 209.301498,737.469055 208.954453,736.995178 
	C208.954437,736.995178 209.005020,736.997986 209.036316,736.641724 
	C208.460983,734.753540 207.981125,733.156128 207.228073,731.700012 
	C200.129425,717.974670 192.951370,704.290344 185.858475,690.562073 
	C163.354874,647.006470 140.910828,603.419983 118.325768,559.906677 
	C116.603775,556.588989 116.981712,554.163818 119.037498,551.252563 
	C123.731483,544.605225 128.180756,537.782837 132.631149,530.967407 
	C133.594467,529.492188 134.144180,527.746887 135.272690,526.081177 
	C137.154602,525.472839 139.000198,525.289246 140.085022,524.284363 
	C147.387894,517.519714 154.706589,510.751282 161.602493,503.582275 
	C163.399460,501.714203 163.715500,498.421570 164.711700,495.783203 
	C162.453537,495.172241 160.195374,494.561310 158.082993,493.642883 
	C164.853668,483.532440 171.478592,473.729492 178.506653,463.947174 
	C182.679840,464.611633 184.943863,462.796143 187.156189,459.831146 
	C202.887497,438.747925 218.797165,417.797791 234.647552,396.803406 
	C239.832108,389.936279 245.157486,383.166931 250.076492,376.114349 
	C251.183533,374.527161 251.794296,371.336700 250.923126,369.994049 
	C250.114059,368.747070 247.030502,368.922455 244.928543,368.601410 
	C244.325378,368.509277 243.653412,368.867645 243.031036,368.667969 
	C252.742752,354.101654 262.437958,339.887848 272.128204,325.670654 
	C273.375458,323.840729 274.596985,321.993256 275.830414,320.153900 
z"/>
<path fill="#FDF3F8" opacity="1.000000" stroke="none" 
	d="
M134.884415,526.125977 
	C134.144180,527.746887 133.594467,529.492188 132.631149,530.967407 
	C128.180756,537.782837 123.731483,544.605225 119.037498,551.252563 
	C116.981712,554.163818 116.603775,556.588989 118.325768,559.906677 
	C140.910828,603.419983 163.354874,647.006470 185.858475,690.562073 
	C192.951370,704.290344 200.129425,717.974670 207.228073,731.700012 
	C207.981125,733.156128 208.460983,734.753540 209.025589,736.664673 
	C202.910843,729.384277 196.692078,721.835388 190.788849,714.047424 
	C149.540970,659.629944 108.385643,605.142334 67.088951,550.762024 
	C64.543503,547.410095 64.108543,545.171814 66.566673,541.300781 
	C112.811333,468.474640 158.917084,395.559845 204.792694,322.500824 
	C207.829025,317.665344 211.358246,317.775085 215.711472,318.175293 
	C218.502441,318.431854 221.285873,318.901917 224.080109,318.969604 
	C241.027649,319.380096 257.977325,319.702301 275.378357,320.103943 
	C274.596985,321.993256 273.375458,323.840729 272.128204,325.670654 
	C262.437958,339.887848 252.742752,354.101654 243.026871,368.659302 
	C243.004654,369.002136 243.019424,369.006531 242.743347,369.132446 
	C242.276825,369.816650 242.086365,370.374939 241.930695,370.971954 
	C241.965485,371.010712 241.922607,370.915955 241.680649,371.006409 
	C241.285141,371.396606 241.131592,371.696289 240.990234,371.999023 
	C241.002441,372.002075 240.994812,371.978058 240.753357,372.067383 
	C240.377045,372.460144 240.242188,372.763550 240.060089,373.056610 
	C240.012848,373.046265 240.094925,373.097656 239.823029,373.212982 
	C239.309128,373.856079 239.067123,374.383850 238.567383,375.126099 
	C218.671280,401.904419 199.121017,428.534515 179.279587,454.945862 
	C176.882385,458.136841 176.557190,460.674896 178.103516,463.926575 
	C171.478592,473.729492 164.853668,483.532440 157.797943,493.814941 
	C149.747879,501.959564 142.233109,509.732849 134.462189,517.240967 
	C130.943726,520.640503 130.990067,523.340576 134.884415,526.125977 
z"/>
<path fill="#FFA3C2" opacity="1.000000" stroke="none" 
	d="
M446.987915,668.031128 
	C450.283295,673.608887 453.416809,678.860107 457.283478,685.339905 
	C449.943146,684.351318 443.700775,683.561951 437.474304,682.662415 
	C419.961182,680.132202 402.452423,677.571350 384.946106,674.994446 
	C370.219238,672.826599 355.555420,669.724121 340.752380,668.778625 
	C332.427673,668.246948 329.026184,663.857727 325.326141,658.019592 
	C318.232269,646.826294 310.836060,635.824585 303.144501,624.102051 
	C312.000153,624.861694 320.148621,625.515686 328.287689,626.270691 
	C337.513489,627.126587 346.730499,628.077087 355.952026,628.979004 
	C368.962585,630.251526 381.970306,631.554443 394.986023,632.772278 
	C403.561096,633.574707 412.138031,634.591919 420.733765,634.844421 
	C425.310181,634.978882 428.037262,636.546326 430.287323,640.441772 
	C435.602539,649.643555 441.289490,658.630554 446.987915,668.031128 
z"/>
<path fill="#FFA3C2" opacity="1.000000" stroke="none" 
	d="
M281.012848,538.925781 
	C308.993469,538.942383 336.476562,538.919250 363.958740,539.060913 
	C365.850098,539.070740 368.635529,539.737671 369.482208,541.068115 
	C377.044952,552.952087 384.265259,565.053955 391.989655,577.754822 
	C389.750824,577.872681 388.188965,578.112244 386.649048,578.012573 
	C361.830933,576.406067 337.019196,574.699707 312.198242,573.139343 
	C298.949463,572.306519 285.689789,571.615173 272.426270,571.074036 
	C269.314911,570.947021 267.242706,570.163208 265.475555,567.375000 
	C260.138214,558.953796 254.454041,550.752686 248.940842,542.442139 
	C248.238571,541.383545 247.748734,540.183960 247.096008,538.925415 
	C258.473785,538.925415 269.494415,538.925415 281.012848,538.925781 
z"/>
<path fill="#FFA3C2" opacity="1.000000" stroke="none" 
	d="
M421.162567,730.889404 
	C404.086029,727.221802 387.395874,723.758911 370.794495,719.913086 
	C368.199188,719.311768 365.274780,717.486328 363.754669,715.340149 
	C356.653748,705.314514 349.982544,694.984070 343.185516,684.744263 
	C342.388184,683.542969 341.762024,682.228149 340.351532,679.704773 
	C347.586243,680.705261 353.675873,681.512817 359.754761,682.394592 
	C377.096924,684.910156 394.436737,687.441772 411.773529,689.994019 
	C426.656708,692.185120 441.475464,695.175903 456.437164,696.331299 
	C465.010071,696.993408 468.118073,702.035706 471.049377,708.246704 
	C471.601196,709.415955 471.441681,711.644653 470.656860,712.605835 
	C464.678375,719.927490 458.588928,727.170898 452.210693,734.142944 
	C451.000519,735.465759 448.221069,736.261353 446.392151,735.953735 
	C438.076569,734.555054 429.841919,732.674988 421.162567,730.889404 
z"/>
<path fill="#FFA2C2" opacity="1.000000" stroke="none" 
	d="
M289.356018,603.624756 
	C284.729706,596.582397 280.297699,589.845032 275.849854,583.083740 
	C282.346191,583.083740 288.223999,582.846069 294.074402,583.145447 
	C301.011353,583.500305 307.914886,584.479431 314.850342,584.900513 
	C328.256989,585.714417 341.682037,586.226990 355.088043,587.050049 
	C369.141022,587.912903 383.183472,588.957703 397.220886,590.046997 
	C398.345398,590.134216 399.836456,590.908691 400.412201,591.829529 
	C406.906830,602.217224 413.255646,612.696167 420.111084,623.915588 
	C403.830811,622.295349 388.451508,620.730347 373.064331,619.247070 
	C364.658752,618.436829 356.235962,617.806152 347.827789,617.021057 
	C334.483826,615.775085 321.145660,614.466858 307.804779,613.188293 
	C307.143066,613.124817 306.455902,612.957581 305.818665,613.064758 
	C297.927429,614.392883 292.788788,610.863770 289.356018,603.624756 
z"/>
<path fill="#FFA3C2" opacity="1.000000" stroke="none" 
	d="
M369.956238,378.034546 
	C366.417358,376.197144 363.216553,374.509766 359.413666,372.505005 
	C370.595398,357.254974 381.418335,342.494293 392.784271,326.993073 
	C413.925110,352.253235 434.420319,376.741913 455.030853,401.368439 
	C451.801117,406.257507 448.969574,410.962616 445.626831,415.271118 
	C444.908264,416.197296 441.982819,416.396149 440.684052,415.733795 
	C428.689758,409.616730 416.807800,403.277435 404.936523,396.921814 
	C393.362671,390.725433 381.839630,384.434143 369.956238,378.034546 
z"/>
<path fill="#FFA3C2" opacity="1.000000" stroke="none" 
	d="
M292.451538,487.610840 
	C320.444458,497.646637 348.078674,507.522705 375.708862,517.397278 
	C372.503540,526.577454 370.530365,528.008972 361.464111,528.000610 
	C333.006348,527.974487 304.547943,528.047791 276.091187,527.863953 
	C266.555542,527.802368 257.024139,527.083740 246.628082,526.627563 
	C252.458511,518.539856 257.809357,511.044098 263.240356,503.606903 
	C267.643494,497.577271 272.307709,491.730713 276.518982,485.572357 
	C278.212402,483.095917 279.718475,482.759857 282.276642,483.854736 
	C285.475800,485.223938 288.814453,486.267151 292.451538,487.610840 
z"/>
<path fill="#FFA2C2" opacity="1.000000" stroke="none" 
	d="
M291.345398,465.360107 
	C295.372650,459.844421 299.072571,454.524292 303.139862,449.501617 
	C304.021301,448.413116 306.557526,447.534424 307.766083,448.006592 
	C336.822937,459.358002 365.804199,470.902954 394.791351,482.432465 
	C396.013184,482.918427 397.159882,483.593170 399.049713,484.531647 
	C393.878143,492.063995 388.942535,499.444489 383.705688,506.604614 
	C383.136810,507.382477 380.654602,507.373383 379.350677,506.910339 
	C356.207153,498.691559 333.108490,490.346527 310.000793,482.026978 
	C302.089874,479.178741 294.180786,476.325470 285.750183,473.286865 
	C287.757843,470.451874 289.453766,468.057068 291.345398,465.360107 
z"/>
<path fill="#FFA2C2" opacity="1.000000" stroke="none" 
	d="
M392.134827,439.883850 
	C401.682037,443.780823 410.858521,447.576172 421.053467,451.792725 
	C417.213318,457.414185 413.766693,462.396423 410.386139,467.423065 
	C405.383636,474.861420 405.415283,474.845581 397.104187,471.537628 
	C369.627075,460.601135 342.139954,449.689850 314.662506,438.754181 
	C313.912781,438.455811 313.229279,437.991028 311.938293,437.291351 
	C317.383301,429.886139 322.592560,422.625397 328.082092,415.583130 
	C328.692749,414.799744 331.116608,414.726807 332.332672,415.223145 
	C352.178131,423.323822 371.964417,431.569366 392.134827,439.883850 
z"/>
<path fill="#FFA2C2" opacity="1.000000" stroke="none" 
	d="
M424.341644,419.666321 
	C428.750580,422.049988 432.832031,424.257019 437.700043,426.889435 
	C434.415344,431.833374 431.475952,436.559448 428.131134,440.978668 
	C427.607330,441.670776 425.070862,441.386200 423.752502,440.848541 
	C402.837463,432.319244 381.969849,423.673615 361.090302,415.057343 
	C352.962402,411.703247 344.831757,408.355804 335.952789,404.696381 
	C340.399445,398.500854 344.543457,392.629700 348.792297,386.835419 
	C352.790924,381.382385 352.762268,381.562012 358.831787,384.820679 
	C375.533081,393.787598 392.306549,402.619995 409.048889,411.510529 
	C414.041748,414.161835 419.025970,416.829498 424.341644,419.666321 
z"/>
<path fill="#FEA2C1" opacity="1.000000" stroke="none" 
	d="
M435.658020,745.112122 
	C437.598389,745.649048 439.135895,746.119690 441.731384,746.914246 
	C431.063690,759.640686 420.817291,771.864563 409.753510,785.063477 
	C398.150452,767.674500 387.001099,750.965454 375.851715,734.256470 
	C376.097107,733.755005 376.342499,733.253540 376.587860,732.752075 
	C396.143646,736.849976 415.699402,740.947937 435.658020,745.112122 
z"/>
<path fill="#FDF3F8" opacity="1.000000" stroke="none" 
	d="
M208.938995,737.305054 
	C209.301498,737.469055 209.648529,737.942932 210.000916,738.738831 
	C209.645355,738.578918 209.284439,738.096924 208.938995,737.305054 
z"/>
<path fill="#FDF3F8" opacity="1.000000" stroke="none" 
	d="
M210.060669,739.263245 
	C210.249039,739.261658 210.553955,739.551392 210.940796,740.165649 
	C210.740891,740.178345 210.459061,739.866455 210.060669,739.263245 
z"/>
<path fill="#FEA1AB" opacity="1.000000" stroke="none" 
	d="
M755.991882,318.043152 
	C788.089905,318.043152 820.187866,318.043152 852.285889,318.043152 
	C852.543823,318.653564 852.801758,319.263947 853.059692,319.874359 
	C850.592468,323.204346 848.177551,326.574524 845.649963,329.858063 
	C821.257202,361.546600 796.867615,393.237671 772.432556,424.893646 
	C750.633728,453.134430 728.776550,481.330170 706.950317,509.549774 
	C702.036255,515.903320 701.927124,517.573364 706.444336,524.672729 
	C716.970642,541.216248 727.585754,557.703247 738.126770,574.237488 
	C769.122681,622.856689 800.104553,671.484802 831.082581,720.115417 
	C845.277466,742.399109 859.451233,764.696167 873.627563,786.991699 
	C873.882507,787.392761 874.050354,787.849365 874.401245,788.574158 
	C862.845154,788.574158 851.500061,788.601135 840.155334,788.548584 
	C838.180908,788.539490 836.211365,788.081177 834.233948,788.022278 
	C810.822937,787.324463 787.407288,786.764160 764.000366,785.951660 
	C751.408752,785.514709 738.836670,784.524963 726.245544,784.061096 
	C720.915344,783.864746 719.890015,779.493286 717.265747,775.743347 
	C716.276611,773.350769 715.755066,771.411926 714.847839,769.674316 
	C704.523315,749.900574 694.126709,730.164490 683.774841,710.405029 
	C657.662537,660.562683 631.539490,610.726013 605.476929,560.857666 
	C599.580688,549.575684 599.847595,549.635132 607.225525,539.197571 
	C612.093384,532.310913 616.413330,525.036926 620.990723,517.960815 
	C621.002869,517.985291 620.949219,517.995483 621.239441,517.864441 
	C621.683594,517.141602 621.837524,516.549744 621.998779,515.981079 
	C622.006042,516.004211 621.957520,516.003235 622.231201,515.948486 
	C622.699829,515.584534 622.894775,515.275330 623.363525,514.787659 
	C625.954834,512.278015 628.235474,509.908752 630.598206,507.624451 
	C634.249695,504.094269 638.945496,501.196564 637.969604,494.621460 
	C643.875488,485.454956 649.817566,476.684052 655.596741,467.807159 
	C658.551880,463.267914 661.215576,458.538910 664.141357,453.593536 
	C672.529236,442.333344 680.742615,431.341675 689.054871,420.425262 
	C700.881714,404.893219 712.751038,389.393311 724.676392,373.936890 
	C726.928345,371.018097 727.759460,368.125946 725.934265,364.421509 
	C735.359253,350.189636 744.763550,336.315186 754.095703,322.392395 
	C754.962158,321.099762 755.370728,319.500214 755.991882,318.043152 
z"/>
<path fill="#FDF3F8" opacity="1.000000" stroke="none" 
	d="
M755.523315,318.026642 
	C755.370728,319.500214 754.962158,321.099762 754.095703,322.392395 
	C744.763550,336.315186 735.359253,350.189636 725.535034,364.485016 
	C721.261169,364.195587 719.082520,366.282349 716.901489,369.142761 
	C697.670715,394.364105 678.261902,419.449951 659.099854,444.723053 
	C657.415222,446.944946 655.880249,450.490540 656.431885,452.934662 
	C657.442810,457.413757 661.116760,453.188446 663.515198,453.916290 
	C663.664612,453.961639 663.845032,453.904907 664.010986,453.895660 
	C661.215576,458.538910 658.551880,463.267914 655.596741,467.807159 
	C649.817566,476.684052 643.875488,485.454956 637.542542,494.650391 
	C634.664795,495.281433 631.474182,494.633759 629.957947,495.935883 
	C622.930359,501.971405 616.271851,508.453461 609.752930,515.044434 
	C608.887329,515.919495 608.988403,518.693665 609.737488,519.918213 
	C610.315674,520.863525 612.757080,521.337158 614.109558,520.993835 
	C616.503662,520.386169 618.699707,518.997986 620.978638,517.936401 
	C616.413330,525.036926 612.093384,532.310913 607.225525,539.197571 
	C599.847595,549.635132 599.580688,549.575684 605.476929,560.857666 
	C631.539490,610.726013 657.662537,660.562683 683.774841,710.405029 
	C694.126709,730.164490 704.523315,749.900574 714.847839,769.674316 
	C715.755066,771.411926 716.276611,773.350769 716.963379,775.570068 
	C689.391785,741.087708 661.814514,706.246948 634.281494,671.371155 
	C602.393555,630.979126 570.566345,590.539124 538.631104,550.184570 
	C536.420471,547.391052 535.671570,545.416260 537.916199,541.984924 
	C585.966064,468.532776 633.889771,394.997925 681.718994,321.401886 
	C683.890991,318.059875 686.148621,316.796326 690.129883,316.894043 
	C711.767578,317.425232 733.412415,317.668060 755.523315,318.026642 
z"/>
<path fill="#FFA3C2" opacity="1.000000" stroke="none" 
	d="
M867.693848,680.137085 
	C877.814575,681.459900 887.485718,682.752014 897.167969,683.953735 
	C908.331360,685.339294 919.512451,686.586060 930.662415,688.069031 
	C931.897034,688.233215 933.411865,689.288879 934.061401,690.372009 
	C938.751709,698.193237 943.252441,706.128174 948.016235,714.378662 
	C941.248962,721.849487 934.582886,729.437134 927.575073,736.694824 
	C926.540161,737.766785 923.623596,737.991699 922.024719,737.400024 
	C905.054871,731.121155 888.172668,724.605103 871.272644,718.137817 
	C863.519409,715.170898 855.926697,711.669189 847.989502,709.333374 
	C841.274292,707.357117 836.745056,703.606384 833.323364,697.693237 
	C829.101196,690.396912 824.415527,683.368896 819.930115,676.224915 
	C820.102051,675.742859 820.273987,675.260864 820.445923,674.778809 
	C836.046997,676.541321 851.648071,678.303833 867.693848,680.137085 
z"/>
<path fill="#FFA3C2" opacity="1.000000" stroke="none" 
	d="
M851.794312,667.072266 
	C838.680298,665.656189 826.010681,664.320984 813.365356,662.785156 
	C812.088867,662.630127 810.549500,661.530029 809.825134,660.417297 
	C802.305908,648.867371 794.926331,637.226624 787.531860,625.595825 
	C787.392273,625.376282 787.544067,624.971497 787.563293,624.585632 
	C802.104736,625.400391 816.638733,626.156311 831.164795,627.042480 
	C852.335388,628.333801 873.509766,629.594849 894.655029,631.225403 
	C897.213196,631.422668 900.602173,633.212463 901.902649,635.316833 
	C909.495056,647.602539 916.588013,660.197205 923.815918,672.706970 
	C924.281494,673.512939 924.465027,674.481812 925.017456,676.049255 
	C917.768738,675.208069 911.089417,674.453552 904.415527,673.654053 
	C891.609192,672.119812 878.803284,670.581177 866.002747,668.999451 
	C861.408752,668.431824 856.830811,667.734497 851.794312,667.072266 
z"/>
<path fill="#FFA3C2" opacity="1.000000" stroke="none" 
	d="
M751.923462,569.429565 
	C743.880981,557.025879 736.101807,544.916016 727.685181,531.813843 
	C738.572937,532.315308 748.289673,532.665222 757.992737,533.244202 
	C764.436340,533.628723 770.851074,534.501221 777.295044,534.873596 
	C791.202026,535.677124 805.123657,536.226257 819.031067,537.023132 
	C827.134033,537.487427 835.226257,538.172852 843.309692,538.908386 
	C844.491211,539.015930 846.112671,539.649048 846.658447,540.560913 
	C852.867981,550.936096 858.907837,561.412781 865.399353,572.560059 
	C863.279846,572.758362 861.898193,572.996399 860.515991,572.999695 
	C850.022705,573.024780 839.527527,573.121460 829.036194,572.970276 
	C813.087036,572.740356 797.139160,572.382019 781.193359,571.972107 
	C772.903748,571.759033 764.617249,571.368896 756.335999,570.932312 
	C754.935608,570.858459 753.568970,570.142517 751.923462,569.429565 
z"/>
<path fill="#FFA3C2" opacity="1.000000" stroke="none" 
	d="
M770.762451,599.242432 
	C767.176270,593.635437 763.808350,588.317688 759.833374,582.041504 
	C766.361633,582.041504 772.050476,581.944885 777.734924,582.061462 
	C790.025024,582.313416 802.312012,582.718384 814.601929,582.980835 
	C832.565796,583.364380 850.532898,583.616638 868.493164,584.118713 
	C870.216431,584.166870 872.680115,585.112610 873.481201,586.438477 
	C879.997498,597.223328 886.199341,608.198120 892.992737,619.974670 
	C884.384888,619.590027 876.547668,619.360962 868.728577,618.853149 
	C862.117737,618.423828 855.538391,617.496948 848.926575,617.095398 
	C830.370544,615.968262 811.804016,615.016174 793.244019,613.952393 
	C789.439453,613.734314 785.613953,613.523865 781.862976,612.912354 
	C780.460144,612.683655 778.857422,611.597595 778.012146,610.422974 
	C775.491150,606.919983 773.300415,603.179382 770.762451,599.242432 
z"/>
<path fill="#FFA3C2" opacity="1.000000" stroke="none" 
	d="
M872.647583,487.618011 
	C868.871582,493.718750 865.288818,499.509766 861.331116,505.906860 
	C826.203552,494.226074 790.976318,482.512115 755.103577,470.583557 
	C756.846313,468.078156 758.319702,465.782745 759.969482,463.622070 
	C764.502075,457.685944 768.953552,451.674011 773.796936,445.999054 
	C774.983337,444.608917 777.933167,443.285126 779.421326,443.802643 
	C812.188477,455.197205 844.863892,466.855652 877.962402,478.607727 
	C876.156250,481.676056 874.498535,484.492188 872.647583,487.618011 
z"/>
<path fill="#FFA3C2" opacity="1.000000" stroke="none" 
	d="
M874.572998,390.386597 
	C860.925354,383.050598 847.591858,375.909485 833.613892,368.423187 
	C844.605408,354.163300 855.287354,340.305084 866.376953,325.917908 
	C871.787415,331.698151 877.009521,337.167206 882.108521,342.748779 
	C891.186829,352.686249 900.193909,362.688904 909.224487,372.669983 
	C915.245239,379.324341 921.356018,385.902679 927.166077,392.736450 
	C928.086426,393.818909 928.338318,396.436615 927.680237,397.718811 
	C925.409546,402.143341 922.537964,406.255096 920.017578,410.557617 
	C918.552490,413.058502 916.875061,413.566650 914.279419,412.133209 
	C901.177185,404.897675 888.023071,397.756042 874.572998,390.386597 
z"/>
<path fill="#FFA3C2" opacity="1.000000" stroke="none" 
	d="
M770.908813,523.034302 
	C754.855835,522.351379 739.277466,521.723938 723.709167,520.906433 
	C722.278259,520.831299 720.273193,519.859558 719.709290,518.721924 
	C719.228638,517.752319 720.094727,515.681763 720.956360,514.547485 
	C729.183350,503.717285 737.481506,492.939178 745.939087,482.289032 
	C746.771912,481.240295 749.069275,480.338318 750.241699,480.723419 
	C784.789612,492.071442 819.281189,503.590790 853.777710,515.095154 
	C854.072266,515.193298 854.311279,515.458069 855.043823,515.975159 
	C852.959412,519.442200 850.973755,523.033813 848.657349,526.397766 
	C848.067932,527.253845 846.403931,527.843933 845.275146,527.783325 
	C829.227905,526.920837 813.185181,525.966736 797.147034,524.945190 
	C788.554443,524.397827 779.972778,523.679260 770.908813,523.034302 
z"/>
<path fill="#FFA2C2" opacity="1.000000" stroke="none" 
	d="
M788.218628,427.228821 
	C791.581665,422.868958 794.510864,418.603729 797.922485,414.767548 
	C799.073608,413.473145 801.763489,412.257385 803.217163,412.711609 
	C834.459839,422.473541 865.627502,432.475922 896.803772,442.450043 
	C897.420898,442.647461 897.967957,443.063690 899.316589,443.794403 
	C895.631531,449.938477 892.061279,456.010803 888.372314,462.010101 
	C884.117859,468.929077 884.043274,468.983093 876.362854,466.259735 
	C846.286316,455.595123 816.229553,444.874786 786.166992,434.170563 
	C785.565796,433.956482 784.984192,433.687195 783.776733,433.189453 
	C785.296936,431.125305 786.635132,429.308228 788.218628,427.228821 
z"/>
<path fill="#FEA2C1" opacity="1.000000" stroke="none" 
	d="
M825.879578,408.110107 
	C819.820862,406.180573 814.146301,404.348846 807.632324,402.246155 
	C812.316101,396.062256 816.699402,390.136383 821.230774,384.325897 
	C827.533020,376.244446 825.611633,376.563263 834.566528,381.362427 
	C860.199463,395.099792 885.708557,409.068329 911.882080,423.280304 
	C910.265015,426.108093 909.032471,429.249969 906.897583,431.556763 
	C905.914368,432.619049 902.974182,432.658203 901.244873,432.120636 
	C882.851929,426.402527 864.523315,420.477295 846.178528,414.604462 
	C839.538208,412.478668 832.901855,410.340454 825.879578,408.110107 
z"/>
<path fill="#FEA2C1" opacity="1.000000" stroke="none" 
	d="
M899.626709,767.601562 
	C895.434082,772.096741 891.443115,776.302002 886.767578,781.228638 
	C874.380371,761.784180 862.089661,742.491272 849.799011,723.198364 
	C850.061096,722.833984 850.323120,722.469543 850.585205,722.105164 
	C872.667786,730.523621 894.750305,738.942078 917.564941,747.639648 
	C911.291992,754.597168 905.560181,760.954468 899.626709,767.601562 
z"/>
<path fill="#D56E94" opacity="1.000000" stroke="none" 
	d="
M178.506668,463.947174 
	C176.557190,460.674896 176.882385,458.136841 179.279587,454.945862 
	C199.121017,428.534515 218.671280,401.904419 238.863037,375.037720 
	C239.642593,374.189148 239.868759,373.643402 240.094940,373.097656 
	C240.094925,373.097656 240.012848,373.046265 240.278961,372.941772 
	C240.814575,372.613464 240.964493,372.327087 240.994812,371.978058 
	C240.994812,371.978058 241.002441,372.002075 241.232956,371.907043 
	C241.616516,371.513336 241.769562,371.214661 241.922607,370.915955 
	C241.922607,370.915955 241.965485,371.010712 242.217972,370.857147 
	C242.653442,370.137909 242.836426,369.572205 243.019424,369.006531 
	C243.019424,369.006531 243.004654,369.002136 243.008820,369.010803 
	C243.653412,368.867645 244.325378,368.509277 244.928543,368.601410 
	C247.030502,368.922455 250.114059,368.747070 250.923126,369.994049 
	C251.794296,371.336700 251.183533,374.527161 250.076492,376.114349 
	C245.157486,383.166931 239.832108,389.936279 234.647552,396.803406 
	C218.797165,417.797791 202.887497,438.747925 187.156189,459.831146 
	C184.943863,462.796143 182.679840,464.611633 178.506668,463.947174 
z"/>
<path fill="#D56E94" opacity="1.000000" stroke="none" 
	d="
M135.272690,526.081177 
	C130.990067,523.340576 130.943726,520.640503 134.462189,517.240967 
	C142.233109,509.732849 149.747879,501.959564 157.652191,494.122406 
	C160.195374,494.561310 162.453537,495.172241 164.711700,495.783203 
	C163.715500,498.421570 163.399460,501.714203 161.602493,503.582275 
	C154.706589,510.751282 147.387894,517.519714 140.085022,524.284363 
	C139.000198,525.289246 137.154602,525.472839 135.272690,526.081177 
z"/>
<path fill="#FEA1AB" opacity="1.000000" stroke="none" 
	d="
M239.823029,373.212982 
	C239.868759,373.643402 239.642593,374.189148 239.120773,374.823273 
	C239.067123,374.383850 239.309128,373.856079 239.823029,373.212982 
z"/>
<path fill="#FEA1AB" opacity="1.000000" stroke="none" 
	d="
M242.743347,369.132446 
	C242.836426,369.572205 242.653442,370.137909 242.183167,370.818390 
	C242.086365,370.374939 242.276825,369.816650 242.743347,369.132446 
z"/>
<path fill="#FEA1AB" opacity="1.000000" stroke="none" 
	d="
M241.680649,371.006409 
	C241.769562,371.214661 241.616516,371.513336 241.220764,371.904022 
	C241.131592,371.696289 241.285141,371.396606 241.680649,371.006409 
z"/>
<path fill="#FEA1AB" opacity="1.000000" stroke="none" 
	d="
M240.753357,372.067383 
	C240.964493,372.327087 240.814575,372.613464 240.326187,372.952087 
	C240.242188,372.763550 240.377045,372.460144 240.753357,372.067383 
z"/>
<path fill="#D56E95" opacity="1.000000" stroke="none" 
	d="
M664.141357,453.593536 
	C663.845032,453.904907 663.664612,453.961639 663.515198,453.916290 
	C661.116760,453.188446 657.442810,457.413757 656.431885,452.934662 
	C655.880249,450.490540 657.415222,446.944946 659.099854,444.723053 
	C678.261902,419.449951 697.670715,394.364105 716.901489,369.142761 
	C719.082520,366.282349 721.261169,364.195587 725.494629,364.829224 
	C727.759460,368.125946 726.928345,371.018097 724.676392,373.936890 
	C712.751038,389.393311 700.881714,404.893219 689.054871,420.425262 
	C680.742615,431.341675 672.529236,442.333344 664.141357,453.593536 
z"/>
<path fill="#D56E95" opacity="1.000000" stroke="none" 
	d="
M620.990723,517.960876 
	C618.699707,518.997986 616.503662,520.386169 614.109558,520.993835 
	C612.757080,521.337158 610.315674,520.863525 609.737488,519.918213 
	C608.988403,518.693665 608.887329,515.919495 609.752930,515.044434 
	C616.271851,508.453461 622.930359,501.971405 629.957947,495.935883 
	C631.474182,494.633759 634.664795,495.281433 637.511230,495.002075 
	C638.945496,501.196564 634.249695,504.094269 630.598206,507.624451 
	C628.235474,509.908752 625.954834,512.278015 623.083130,514.841553 
	C622.338379,515.383606 622.147949,515.693420 621.957520,516.003235 
	C621.957520,516.003235 622.006042,516.004211 621.679077,516.104126 
	C621.217834,516.801147 621.083557,517.398315 620.949219,517.995483 
	C620.949219,517.995483 621.002869,517.985291 620.990723,517.960876 
z"/>
<path fill="#FDF3F8" opacity="1.000000" stroke="none" 
	d="
M621.239441,517.864441 
	C621.083557,517.398315 621.217834,516.801147 621.671753,516.080933 
	C621.837524,516.549744 621.683594,517.141602 621.239441,517.864441 
z"/>
<path fill="#FDF3F8" opacity="1.000000" stroke="none" 
	d="
M622.231201,515.948486 
	C622.147949,515.693420 622.338379,515.383606 622.809204,515.020020 
	C622.894775,515.275330 622.699829,515.584534 622.231201,515.948486 
z"/>
</svg>