<?xml version="1.0" encoding="iso-8859-1"?>
<!-- Generator: Adobe Illustrator 19.0.0, SVG Export Plug-In . SVG Version: 6.00 Build 0)  -->
<svg version="1.1" id="Layer_1" xmlns="http://www.w3.org/2000/svg" xmlns:xlink="http://www.w3.org/1999/xlink" x="0px" y="0px"
	 viewBox="0 0 504 504" style="enable-background:new 0 0 504 504;" xml:space="preserve">
<path d="M143.2,362c-8,0-15.2-5.6-16.8-13.6L87.2,166c-2.4-9.6,4-18.4,13.6-20.8c9.6-2.4,18.4,4,20.8,13.6l39.2,182.4
	c1.6,9.6-4,18.4-13.6,20.8C145.6,362,144.8,362,143.2,362z"/>
<path d="M278.4,362c-0.8,0-2.4,0-4,0c-9.6-2.4-15.2-11.2-13.6-20.8L300,158c2.4-9.6,11.2-15.2,20.8-13.6
	c9.6,2.4,15.2,11.2,13.6,20.8l-39.2,183.2C293.6,356.4,286.4,362,278.4,362z"/>
<path d="M212,358c-9.6,0-16-8-16-17.6V158c0-9.6,6.4-17.6,16-17.6s16,8,16,17.6v182.4C228,350.8,221.6,358,212,358z"/>
<path style="fill:#18456D;" d="M420.8,163.6c1.6-5.6,0.8-11.2-2.4-16c-3.2-4-8.8-7.2-14.4-7.2H17.6c-5.6,0-10.4,3.2-14.4,7.2
	c-3.2,4.8-4,10.4-2.4,16l40,128l2.4,7.2L60,353.2c2.4,7.2,8.8,11.2,16.8,11.2h268c8,0,14.4-4,16.8-11.2l17.6-55.2l2.4-7.2
	L420.8,163.6z M61.6,244.4H360l-9.6,24H71.2L61.6,244.4z M380.8,172.4l-9.6,32H50.4l-9.6-32H380.8z M89.6,332.4l-7.2-24H340l-8,24
	H89.6z"/>
<g>
	<path style="fill:#0B3249;" d="M404,148.4H17.6c-5.6,0-10.4,3.2-14.4,7.2c-1.6,1.6-2.4,4-3.2,6.4c0,0,0,0.8,0,1.6l40,128l2.4,7.2
		L60,353.2c2.4,7.2,8.8,11.2,16.8,11.2h268c8,0,14.4-4,16.8-11.2l17.6-55.2l2.4-7.2l40-128V162c-0.8-2.4-1.6-4.8-3.2-6.4
		C415.2,151.6,409.6,148.4,404,148.4z M340,316.4l-8,24H89.6l-7.2-24h2.4l-2.4-8H340l-2.4,8H340z M360,252.4l-9.6,24H71.2l-9.6-24
		H64l-2.4-8H360l-2.4,8H360z M380.8,180.4l-9.6,32H50.4l-9.6-32h2.4l-2.4-8h340l-2.4,8H380.8z"/>
	<path style="fill:#0B3249;" d="M354.4,428.4H67.2c-9.6,0-17.6-6.4-17.6-16s8-16,17.6-16h287.2c9.6,0,17.6,6.4,17.6,16
		S364,428.4,354.4,428.4z"/>
</g>
<path d="M81.6,428.4h113.6c0-16-16-24-34.4-32H99.2C88.8,404.4,81.6,412.4,81.6,428.4z"/>
<path style="fill:#0E3451;" d="M168.8,428.4c0,24-19.2,46.4-43.2,46.4s-43.2-22.4-43.2-46.4s19.2-43.2,43.2-43.2
	S168.8,404.4,168.8,428.4z"/>
<path style="fill:#2689C6;" d="M168.8,428.4c0,24-19.2,43.2-43.2,43.2s-43.2-19.2-43.2-43.2s19.2-47.2,43.2-47.2
	C149.6,382,168.8,404.4,168.8,428.4z"/>
<circle style="fill:#1B5A89;" cx="125.6" cy="428.4" r="43.2"/>
<path style="fill:#18456D;" d="M94.4,398c16.8-16.8,44.8-16.8,61.6,0s16.8,44.8,0,61.6"/>
<path style="fill:#0B3249;" d="M125.6,454.8c-14.4,0-25.6-11.2-25.6-25.6s11.2-25.6,25.6-25.6s25.6,11.2,25.6,25.6
	C151.2,442.8,139.2,454.8,125.6,454.8z"/>
<path d="M143.2,410c10.4,10.4,10.4,26.4,0,36.8s-26.4,10.4-36.8,0"/>
<path d="M242.4,428.4H356c0-16-16-24-34.4-32H260C249.6,404.4,242.4,412.4,242.4,428.4z"/>
<path style="fill:#0E3451;" d="M329.6,428.4c0,24-19.2,46.4-43.2,46.4s-43.2-22.4-43.2-46.4s19.2-43.2,43.2-43.2
	C309.6,385.2,329.6,404.4,329.6,428.4z"/>
<path style="fill:#2689C6;" d="M329.6,428.4c0,24-19.2,43.2-43.2,43.2s-43.2-19.2-43.2-43.2s19.2-47.2,43.2-47.2
	C309.6,382,329.6,404.4,329.6,428.4z"/>
<circle style="fill:#1B5A89;" cx="285.6" cy="428.4" r="43.2"/>
<path style="fill:#18456D;" d="M255.2,398c16.8-16.8,44.8-16.8,61.6,0c16.8,16.8,16.8,44.8,0,61.6"/>
<path style="fill:#0B3249;" d="M285.6,454.8c-14.4,0-25.6-11.2-25.6-25.6s11.2-25.6,25.6-25.6s25.6,11.2,25.6,25.6
	C312,442.8,300,454.8,285.6,454.8z"/>
<path d="M304,410c10.4,10.4,10.4,26.4,0,36.8s-26.4,10.4-36.8,0"/>
<path style="fill:#1B5A89;" d="M504,100.4c0,8.8-8,16-18.4,16h-70.4c-10.4,0-19.2-7.2-19.2-16l0,0c0-8.8,8.8-16,19.2-16h70.4
	C496,84.4,504,91.6,504,100.4L504,100.4z"/>
<path style="fill:#18456D;" d="M413.6,84.4c-8,0-14.4,2.4-17.6,12c2.4,7.2,9.6,12,17.6,12h72.8c8,0,14.4-4.8,16.8-12
	c-2.4-7.2-9.6-12-16.8-12H413.6z"/>
<path style="fill:#FF667C;" d="M438.4,97.2c-9.6,0-18.4,4-26.4,12c-8-8-16.8-12-26.4-12c-25.6,0-46.4,19.2-47.2,44
	c-0.8,31.2,17.6,58.4,35.2,74.4c12,11.2,25.6,16.8,36,16.8c0.8,0,1.6,0,2.4,0s1.6,0,2.4,0c10.4,0,23.2-6.4,36-16.8
	c17.6-15.2,36-43.2,35.2-74.4C484.8,116.4,464.8,97.2,438.4,97.2z"/>
<path style="fill:#ED266E;" d="M438.4,97.2c-9.6,0-18.4,4-26.4,12c-0.8-0.8-1.6-0.8-2.4-1.6L371.2,214c0.8,0.8,1.6,1.6,2.4,1.6
	c12,11.2,25.6,16.8,36,16.8c0.8,0,1.6,0,2.4,0s1.6,0,2.4,0c10.4,0,23.2-6.4,36-16.8c17.6-15.2,36-43.2,35.2-74.4
	C484.8,116.4,464.8,97.2,438.4,97.2z"/>
<path style="fill:#FF667C;" d="M323.2,53.2c-3.2,0-5.6,1.6-8,4c-2.4-2.4-5.6-4-8-4c-8,0-14.4,5.6-14.4,13.6
	c0,9.6,5.6,18.4,11.2,22.4c4,3.2,8,5.6,11.2,5.6h0.8h0.8c3.2,0,7.2-1.6,11.2-5.6c4-4.8,9.6-12.8,9.6-22.4
	C336.8,58.8,331.2,53.2,323.2,53.2z"/>
<path style="fill:#ED266E;" d="M323.2,53.2c-3.2,0-5.6,1.6-8,4c0,0-0.8,0-0.8-0.8l-12,32.8c0,0,0.8,0,0.8,0.8c4,3.2,8,5.6,11.2,5.6
	h0.8h0.8c3.2,0,7.2-1.6,11.2-5.6c4.8-5.6,10.4-13.6,10.4-23.2C336.8,58.8,331.2,53.2,323.2,53.2z"/>
<path style="fill:#FF667C;" d="M394.4,29.2c-1.6,0-2.4,0.8-4,1.6c-0.8-0.8-2.4-1.6-4-1.6c-4,0-6.4,2.4-6.4,6.4c0,4.8,2.4,8,4.8,10.4
	c1.6,1.6,4,2.4,4.8,2.4l0,0l0,0c1.6,0,3.2-0.8,4.8-2.4c2.4-2.4,4.8-6.4,4.8-10.4C400.8,32.4,397.6,29.2,394.4,29.2z"/>
<path style="fill:#ED266E;" d="M394.4,29.2c-1.6,0-2.4,0.8-4,1.6l0,0L384.8,46l0,0c1.6,1.6,4,2.4,4.8,2.4l0,0l0,0
	c1.6,0,3.2-0.8,4.8-2.4c2.4-2.4,4.8-6.4,4.8-10.4C400.8,32.4,397.6,29.2,394.4,29.2z"/>
<g>
</g>
<g>
</g>
<g>
</g>
<g>
</g>
<g>
</g>
<g>
</g>
<g>
</g>
<g>
</g>
<g>
</g>
<g>
</g>
<g>
</g>
<g>
</g>
<g>
</g>
<g>
</g>
<g>
</g>
</svg>
