<svg version="1.1" id="Layer_1" xmlns="http://www.w3.org/2000/svg" xmlns:xlink="http://www.w3.org/1999/xlink" x="0px" y="0px"
	 width="100%" viewBox="0 0 1000 1000" enable-background="new 0 0 1000 1000" xml:space="preserve">
<path fill="#FFFFFF" opacity="0" stroke="none" 
	d="
M641.000000,1001.000000 
	C427.333344,1001.000000 214.166672,1001.000000 1.000000,1001.000000 
	C1.000000,667.666687 1.000000,334.333344 1.000000,1.000000 
	C334.333344,1.000000 667.666687,1.000000 1001.000000,1.000000 
	C1001.000000,334.333344 1001.000000,667.666687 1001.000000,1001.000000 
	C881.166687,1001.000000 761.333313,1001.000000 641.000000,1001.000000 
M353.498352,521.949158 
	C351.237061,525.568848 348.952942,529.174561 346.718445,532.810730 
	C336.749664,549.032532 326.760223,565.241760 316.846497,581.497131 
	C309.063965,594.257996 301.482941,607.142639 293.620972,619.853943 
	C287.753082,629.341064 281.334167,638.492737 275.621765,648.068909 
	C271.237579,655.418396 267.572540,663.196960 263.411469,671.120178 
	C270.973938,679.943970 278.776093,688.890137 286.401581,697.984497 
	C295.922089,709.338867 305.277008,720.831970 314.740448,732.234375 
	C324.627777,744.147583 334.528839,756.049866 344.521210,767.874695 
	C345.449097,768.972778 347.084381,770.169434 348.380920,770.157837 
	C380.970947,769.867920 413.558624,769.293518 446.148804,769.043823 
	C472.308868,768.843384 498.471710,768.994324 524.633301,769.012390 
	C528.670593,769.015198 531.699585,768.279602 534.505066,764.394287 
	C545.853149,748.678711 557.806396,733.400024 569.540649,717.963379 
	C585.650818,696.770264 601.802429,675.608459 617.866028,654.380066 
	C631.839417,635.913818 645.671082,617.340454 659.646362,598.875671 
	C674.620789,579.090759 689.736389,559.412659 704.702515,539.621521 
	C716.348450,524.220825 727.859558,508.718170 739.500427,493.167572 
	C731.697937,480.785706 723.835632,468.273590 715.938538,455.783478 
	C691.282288,416.786713 666.603943,377.803864 641.951233,338.804779 
	C620.280579,304.523285 598.622986,270.233429 576.993835,235.925735 
	C575.252502,233.163651 573.129700,231.693466 569.679688,231.947800 
	C562.917786,232.446304 556.138123,232.763123 549.360107,232.969482 
	C535.922791,233.378571 522.480957,233.635941 509.042358,234.005096 
	C498.434509,234.296494 487.829376,234.688522 477.221680,234.986649 
	C464.282867,235.350266 451.343964,235.738174 438.402618,235.979630 
	C417.132416,236.376480 395.853790,236.460037 374.592834,237.125885 
	C368.470032,237.317627 362.572662,237.689621 357.930786,244.128036 
	C349.568573,255.726822 339.634460,266.188354 330.420349,277.178070 
	C320.580261,288.914459 310.801636,300.702484 301.018951,312.486877 
	C294.615173,320.200958 288.251862,327.948639 281.820862,335.741302 
	C283.482666,338.343353 284.925354,340.717590 286.478882,343.016968 
	C301.281494,364.926758 316.142883,386.796906 330.907837,408.731964 
	C346.311798,431.616302 361.598053,454.579956 377.033539,477.442871 
	C378.428406,479.508881 378.412781,480.832550 377.088165,482.976776 
	C369.237427,495.685089 361.606079,508.528992 353.498352,521.949158 
z"/>
<path fill="#D46B93" opacity="1.000000" stroke="none" 
	d="
M353.699646,521.638184 
	C361.606079,508.528992 369.237427,495.685089 377.088165,482.976776 
	C378.412781,480.832550 378.428406,479.508881 377.033539,477.442871 
	C361.598053,454.579956 346.311798,431.616302 330.907837,408.731964 
	C316.142883,386.796906 301.281494,364.926758 286.478882,343.016968 
	C284.925354,340.717590 283.482666,338.343353 281.820862,335.741302 
	C288.251862,327.948639 294.615173,320.200958 301.018951,312.486877 
	C310.801636,300.702484 320.580261,288.914459 330.420349,277.178070 
	C339.634460,266.188354 349.568573,255.726822 357.930786,244.128036 
	C362.572662,237.689621 368.470032,237.317627 374.592834,237.125885 
	C395.853790,236.460037 417.132416,236.376480 438.402618,235.979630 
	C451.343964,235.738174 464.282867,235.350266 477.221680,234.986649 
	C487.829376,234.688522 498.434509,234.296494 509.042358,234.005096 
	C522.480957,233.635941 535.922791,233.378571 549.360107,232.969482 
	C556.138123,232.763123 562.917786,232.446304 569.679688,231.947800 
	C573.129700,231.693466 575.252502,233.163651 576.993835,235.925735 
	C598.622986,270.233429 620.280579,304.523285 641.951233,338.804779 
	C666.603943,377.803864 691.282288,416.786713 715.938538,455.783478 
	C723.835632,468.273590 731.697937,480.785706 739.500427,493.167572 
	C727.859558,508.718170 716.348450,524.220825 704.702515,539.621521 
	C689.736389,559.412659 674.620789,579.090759 659.646362,598.875671 
	C645.671082,617.340454 631.839417,635.913818 617.866028,654.380066 
	C601.802429,675.608459 585.650818,696.770264 569.540649,717.963379 
	C557.806396,733.400024 545.853149,748.678711 534.505066,764.394287 
	C531.699585,768.279602 528.670593,769.015198 524.633301,769.012390 
	C498.471710,768.994324 472.308868,768.843384 446.148804,769.043823 
	C413.558624,769.293518 380.970947,769.867920 348.380920,770.157837 
	C347.084381,770.169434 345.449097,768.972778 344.521210,767.874695 
	C334.528839,756.049866 324.627777,744.147583 314.740448,732.234375 
	C305.277008,720.831970 295.922089,709.338867 286.401581,697.984497 
	C278.776093,688.890137 270.973938,679.943970 263.411469,671.120178 
	C267.572540,663.196960 271.237579,655.418396 275.621765,648.068909 
	C281.334167,638.492737 287.753082,629.341064 293.620972,619.853943 
	C301.482941,607.142639 309.063965,594.257996 316.846497,581.497131 
	C326.760223,565.241760 336.749664,549.032532 346.718445,532.810730 
	C348.952942,529.174561 351.237061,525.568848 353.699646,521.638184 
M386.155487,692.952454 
	C384.667542,693.060059 383.144012,692.997864 381.697113,693.301270 
	C366.157532,696.559326 350.622742,699.841064 335.102692,703.190674 
	C328.215332,704.677185 321.364471,706.332642 313.549469,708.129211 
	C325.715942,722.618286 337.252197,736.356750 349.159943,750.537720 
	C350.842072,747.958984 352.083099,746.042969 353.337372,744.135620 
	C364.550140,727.084534 375.765228,710.035034 387.251892,692.882263 
	C387.173706,692.928833 387.095551,692.975464 386.155487,692.952454 
M492.168030,248.999115 
	C478.713531,249.333405 465.259796,249.703690 451.804352,249.993027 
	C434.342896,250.368515 416.877686,250.592178 399.419220,251.069473 
	C393.881622,251.220871 388.360504,251.974579 382.405121,252.489548 
	C397.911102,273.794342 413.159058,294.880188 428.548492,315.862244 
	C465.665710,366.468048 502.982300,416.928619 539.852966,467.713135 
	C545.008850,474.814667 545.815979,479.574646 540.352234,487.696198 
	C512.234131,529.492249 484.651794,571.648560 456.821198,613.638489 
	C426.512054,659.367920 396.134491,705.052124 365.794952,750.761353 
	C364.842224,752.196777 363.979675,753.692017 362.567596,755.982544 
	C365.276733,755.982544 366.899841,756.017944 368.520996,755.976868 
	C380.319031,755.677795 392.115021,755.209473 403.914734,755.082092 
	C442.539307,754.665100 481.165985,754.424133 519.788757,753.892029 
	C522.052917,753.860901 525.008667,752.436279 526.419434,750.678467 
	C533.896851,741.361450 541.094666,731.812439 548.164185,722.178467 
	C552.647461,716.068970 556.737793,709.671326 561.699768,703.190979 
	C562.759460,702.178894 563.979736,701.288818 564.854919,700.136658 
	C580.570251,679.447510 596.244995,658.727661 611.925842,638.012390 
	C647.710022,590.739502 683.472412,543.450134 719.329590,496.232788 
	C721.360535,493.558380 721.531799,491.632233 719.690002,488.739594 
	C700.906860,459.239044 682.276306,429.641357 663.591064,400.078430 
	C632.092896,350.243286 600.563782,300.427704 569.142273,250.544281 
	C567.401306,247.780441 565.500671,246.725204 562.292786,246.944443 
	C554.856812,247.452682 547.403442,247.764709 539.951904,247.973419 
	C524.341492,248.410645 508.727753,248.729919 492.168030,248.999115 
M330.610565,638.035828 
	C335.363495,637.361572 340.119202,636.706055 344.868866,636.009644 
	C359.609589,633.848206 374.338989,631.607056 389.090027,629.518982 
	C402.691803,627.593567 416.329132,625.914673 429.914429,623.883667 
	C431.741180,623.610535 433.933777,622.313904 434.974518,620.810974 
	C442.264435,610.283142 449.332336,599.600464 456.391388,588.914551 
	C459.003479,584.960388 461.400391,580.864014 464.379944,576.049622 
	C458.405670,576.462585 453.338318,576.708679 448.292114,577.180847 
	C431.635010,578.739197 414.987213,580.397278 398.332397,581.980652 
	C389.753021,582.796204 381.162445,583.494019 372.583832,584.317383 
	C360.226227,585.503601 347.893738,587.072632 335.510681,587.806519 
	C331.218018,588.060913 328.960876,589.582947 326.928192,593.042786 
	C320.613617,603.790894 314.025238,614.377869 307.575256,625.046875 
	C304.106201,630.785034 300.702911,636.562988 296.820251,643.077637 
	C308.513824,641.304138 319.119385,639.695618 330.610565,638.035828 
M391.720764,526.051880 
	C395.216644,526.002197 398.723938,526.116699 402.206512,525.875244 
	C419.892090,524.649475 437.564575,523.227783 455.254913,522.079468 
	C468.662720,521.209167 482.100983,520.792236 495.501068,519.830566 
	C498.390961,519.623047 502.366302,518.802124 503.807587,516.799683 
	C511.080200,506.695435 517.686157,496.110931 524.485718,485.668701 
	C524.684021,485.364136 524.433960,484.767578 524.391541,484.291992 
	C523.796875,484.174652 523.312378,483.995239 522.827942,483.995361 
	C480.702545,484.006104 438.576996,483.994995 396.452332,484.184998 
	C394.768494,484.192566 392.478668,485.721344 391.515381,487.214874 
	C385.934845,495.867249 380.630554,504.699402 375.309998,513.517273 
	C372.558685,518.077087 369.966827,522.733032 366.924408,528.000916 
	C375.628326,527.295105 383.202911,526.680908 391.720764,526.051880 
M289.809113,679.709656 
	C294.273499,685.059631 298.560272,690.576233 303.319397,695.649658 
	C304.609283,697.024841 307.512054,697.958435 309.361328,697.576843 
	C337.256287,691.821228 365.112030,685.871765 392.927826,679.744568 
	C395.069183,679.272888 397.434998,677.535950 398.690826,675.699402 
	C406.756073,663.904785 414.554260,651.927124 422.392517,639.978333 
	C423.057648,638.964355 423.373901,637.721558 424.058136,636.095764 
	C422.101013,636.095764 420.773682,635.937439 419.495331,636.120605 
	C408.195435,637.739868 396.901642,639.402283 385.610992,641.084961 
	C354.684631,645.694031 323.753571,650.273132 292.852600,655.046509 
	C290.898102,655.348450 288.591614,656.796448 287.455383,658.416931 
	C279.973602,669.087952 280.063843,669.151001 289.085907,678.739807 
	C289.199829,678.860901 289.300385,678.994568 289.809113,679.709656 
M349.000427,575.514343 
	C359.066467,574.652161 369.137146,573.840820 379.197479,572.916565 
	C396.655731,571.312439 414.103241,569.590454 431.563599,568.010315 
	C443.603210,566.920715 455.681122,566.197449 467.684753,564.814209 
	C470.234375,564.520325 473.297394,562.624084 474.817657,560.521545 
	C480.849884,552.179138 486.374939,543.469299 492.056274,534.874634 
	C492.730438,533.854736 493.209808,532.705994 494.288574,530.643677 
	C489.207733,531.140076 485.134369,531.644470 481.045593,531.918640 
	C465.498596,532.961182 449.949799,533.982361 434.395752,534.912598 
	C410.901672,536.317749 387.396606,537.551453 363.915649,539.144775 
	C361.745209,539.292053 359.050262,541.027954 357.746246,542.848145 
	C354.079376,547.966492 350.972107,553.490173 347.719360,558.899292 
	C344.446228,564.342407 341.263550,569.839844 337.763062,575.786011 
	C341.845337,575.786011 344.983612,575.786011 349.000427,575.514343 
M378.037994,319.542023 
	C386.467499,315.063934 394.897034,310.585876 403.865204,305.821625 
	C391.476593,288.862823 379.589813,272.590942 367.232880,255.675522 
	C365.841064,257.362427 364.795929,258.639557 363.739929,259.907684 
	C352.386719,273.541656 341.048828,287.188446 329.671906,300.802612 
	C320.738770,311.492432 311.822815,322.198059 302.754517,332.772522 
	C300.175476,335.779907 299.860229,338.241394 302.537598,341.371765 
	C304.897644,344.131134 307.003571,347.188171 308.747620,350.373322 
	C310.846527,354.206543 313.020508,354.295715 316.710846,352.290771 
	C336.856293,341.345764 357.143188,330.661255 378.037994,319.542023 
M439.440613,441.976013 
	C421.225464,448.505219 403.010315,455.034424 384.339844,461.726837 
	C385.772766,464.058136 386.862152,465.520081 387.628265,467.135376 
	C389.894226,471.912903 393.406036,473.240997 398.766479,473.202026 
	C439.262939,472.907837 479.762268,473.005890 520.260681,472.981628 
	C521.956116,472.980621 523.651489,472.981476 526.313904,472.981476 
	C514.204041,456.371033 502.899506,440.795990 491.432617,425.341339 
	C490.860504,424.570282 488.693695,424.318115 487.582947,424.710907 
	C471.755432,430.307800 455.982086,436.057770 439.440613,441.976013 
M467.507690,420.012482 
	C472.590942,418.150818 477.674225,416.289185 483.311584,414.224609 
	C476.327423,404.688507 469.762421,395.561127 462.913971,386.651581 
	C462.294800,385.846069 459.645874,385.928864 458.282318,386.467224 
	C434.657654,395.795074 411.089111,405.265076 387.502838,414.690338 
	C378.353302,418.346558 369.190216,421.968872 359.788788,425.703766 
	C364.919647,433.423615 369.797791,440.357483 374.213318,447.574432 
	C376.492096,451.298950 378.637390,452.239746 382.954926,450.642242 
	C410.824585,440.330566 438.805847,430.320526 467.507690,420.012482 
M382.312378,371.839691 
	C367.180450,378.072357 352.048523,384.304993 336.222900,390.823334 
	C341.781433,399.152313 346.793213,406.922363 352.191711,414.413666 
	C352.848480,415.325043 355.823456,415.341888 357.324036,414.753326 
	C381.740448,405.176758 406.094574,395.441193 430.457428,385.728149 
	C438.553772,382.500305 446.635132,379.234833 455.248199,375.775787 
	C448.570129,366.725342 442.313446,358.246033 435.968231,349.646667 
	C417.960571,357.073730 400.479004,364.283813 382.312378,371.839691 
M388.943298,326.459717 
	C365.517395,338.904907 342.091522,351.350098 318.190521,364.047699 
	C321.356842,368.905853 324.321106,372.918579 326.693451,377.255127 
	C328.773254,381.056976 331.135590,381.158264 334.780151,379.635864 
	C361.606995,368.429535 388.502594,357.387787 415.366394,346.269745 
	C419.889832,344.397675 424.364319,342.407288 429.229492,340.313110 
	C422.761444,331.534332 416.688171,323.291382 410.449615,314.824097 
	C403.298157,318.695679 396.447479,322.404449 388.943298,326.459717 
z"/>
<path fill="#FEA1AB" opacity="1.000000" stroke="none" 
	d="
M561.004395,703.402893 
	C556.737793,709.671326 552.647461,716.068970 548.164185,722.178467 
	C541.094666,731.812439 533.896851,741.361450 526.419434,750.678467 
	C525.008667,752.436279 522.052917,753.860901 519.788757,753.892029 
	C481.165985,754.424133 442.539307,754.665100 403.914734,755.082092 
	C392.115021,755.209473 380.319031,755.677795 368.520996,755.976868 
	C366.899841,756.017944 365.276733,755.982544 362.567596,755.982544 
	C363.979675,753.692017 364.842224,752.196777 365.794952,750.761353 
	C396.134491,705.052124 426.512054,659.367920 456.821198,613.638489 
	C484.651794,571.648560 512.234131,529.492249 540.352234,487.696198 
	C545.815979,479.574646 545.008850,474.814667 539.852966,467.713135 
	C502.982300,416.928619 465.665710,366.468048 428.548492,315.862244 
	C413.159058,294.880188 397.911102,273.794342 382.405121,252.489548 
	C388.360504,251.974579 393.881622,251.220871 399.419220,251.069473 
	C416.877686,250.592178 434.342896,250.368515 451.804352,249.993027 
	C465.259796,249.703690 478.713531,249.333405 492.656616,249.399292 
	C495.023621,252.406418 496.963837,254.971359 498.769714,257.627655 
	C506.593140,269.135010 514.404297,280.650940 522.159546,292.204193 
	C524.534485,295.742249 526.717346,299.409241 528.614746,302.992981 
	C527.660889,302.659485 527.080505,302.088226 526.499756,302.087830 
	C524.395447,302.086365 521.763245,301.579956 520.369629,302.635864 
	C519.419250,303.355896 519.840515,306.452576 520.319092,308.314240 
	C520.706970,309.823364 522.044373,311.113159 523.044983,312.436432 
	C545.340942,341.921814 567.585022,371.447144 590.086243,400.775116 
	C591.724548,402.910522 595.244812,403.602051 598.210632,405.095428 
	C605.362976,415.494568 612.194885,425.763153 618.639343,436.041962 
	C616.275696,437.259644 613.606323,438.065796 612.586548,439.827057 
	C611.987610,440.861542 613.571472,443.856232 614.929321,445.212372 
	C622.754272,453.027283 630.761780,460.662109 638.829224,468.228149 
	C639.930359,469.260834 641.711548,469.568359 643.224915,470.539215 
	C648.628845,478.863007 653.695740,487.075500 659.442261,494.781128 
	C663.428345,500.126160 664.033325,504.201324 660.576660,510.655060 
	C642.995300,543.479858 626.196167,576.723816 609.144348,609.831909 
	C593.083984,641.015137 577.049988,672.212036 561.004395,703.402893 
z"/>
<path fill="#FDF3F8" opacity="1.000000" stroke="none" 
	d="
M561.352051,703.296936 
	C577.049988,672.212036 593.083984,641.015137 609.144348,609.831909 
	C626.196167,576.723816 642.995300,543.479858 660.576660,510.655060 
	C664.033325,504.201324 663.428345,500.126160 659.442261,494.781128 
	C653.695740,487.075500 648.628845,478.863007 643.592346,470.433441 
	C647.058838,466.760590 647.022461,463.873901 643.592590,460.440460 
	C635.434509,452.273743 627.218994,444.164337 619.026733,436.031769 
	C612.194885,425.763153 605.362976,415.494568 598.245850,404.700928 
	C599.864380,400.647644 598.973877,397.599426 596.632751,394.568878 
	C590.339905,386.422821 584.103210,378.231201 577.971497,369.963318 
	C563.654480,350.658478 549.411987,331.298279 535.095703,311.658020 
	C534.671021,310.923187 534.289917,310.490906 533.824097,309.843750 
	C533.596619,309.342651 533.382629,309.127289 533.011963,308.734009 
	C532.646240,308.293488 532.365784,308.101685 532.069397,307.961670 
	C532.053406,308.013489 532.113770,307.923126 532.101746,307.616394 
	C531.719177,306.857330 531.348572,306.404968 530.898376,305.746826 
	C530.674377,305.272247 530.465149,305.070953 530.149170,304.633728 
	C529.732727,303.888672 529.358154,303.447083 528.990479,303.003479 
	C528.997437,303.001495 528.988159,303.017181 528.988159,303.017181 
	C526.717346,299.409241 524.534485,295.742249 522.159546,292.204193 
	C514.404297,280.650940 506.593140,269.135010 498.769714,257.627655 
	C496.963837,254.971359 495.023621,252.406418 493.130310,249.448547 
	C508.727753,248.729919 524.341492,248.410645 539.951904,247.973419 
	C547.403442,247.764709 554.856812,247.452682 562.292786,246.944443 
	C565.500671,246.725204 567.401306,247.780441 569.142273,250.544281 
	C600.563782,300.427704 632.092896,350.243286 663.591064,400.078430 
	C682.276306,429.641357 700.906860,459.239044 719.690002,488.739594 
	C721.531799,491.632233 721.360535,493.558380 719.329590,496.232788 
	C683.472412,543.450134 647.710022,590.739502 611.925842,638.012390 
	C596.244995,658.727661 580.570251,679.447510 564.854919,700.136658 
	C563.979736,701.288818 562.759460,702.178894 561.352051,703.296936 
z"/>
<path fill="#FFA3C2" opacity="1.000000" stroke="none" 
	d="
M330.167786,638.061523 
	C319.119385,639.695618 308.513824,641.304138 296.820251,643.077637 
	C300.702911,636.562988 304.106201,630.785034 307.575256,625.046875 
	C314.025238,614.377869 320.613617,603.790894 326.928192,593.042786 
	C328.960876,589.582947 331.218018,588.060913 335.510681,587.806519 
	C347.893738,587.072632 360.226227,585.503601 372.583832,584.317383 
	C381.162445,583.494019 389.753021,582.796204 398.332397,581.980652 
	C414.987213,580.397278 431.635010,578.739197 448.292114,577.180847 
	C453.338318,576.708679 458.405670,576.462585 464.379944,576.049622 
	C461.400391,580.864014 459.003479,584.960388 456.391388,588.914551 
	C449.332336,599.600464 442.264435,610.283142 434.974518,620.810974 
	C433.933777,622.313904 431.741180,623.610535 429.914429,623.883667 
	C416.329132,625.914673 402.691803,627.593567 389.090027,629.518982 
	C374.338989,631.607056 359.609589,633.848206 344.868866,636.009644 
	C340.119202,636.706055 335.363495,637.361572 330.167786,638.061523 
z"/>
<path fill="#FFA3C2" opacity="1.000000" stroke="none" 
	d="
M391.249146,526.059265 
	C383.202911,526.680908 375.628326,527.295105 366.924408,528.000916 
	C369.966827,522.733032 372.558685,518.077087 375.309998,513.517273 
	C380.630554,504.699402 385.934845,495.867249 391.515381,487.214874 
	C392.478668,485.721344 394.768494,484.192566 396.452332,484.184998 
	C438.576996,483.994995 480.702545,484.006104 522.827942,483.995361 
	C523.312378,483.995239 523.796875,484.174652 524.391541,484.291992 
	C524.433960,484.767578 524.684021,485.364136 524.485718,485.668701 
	C517.686157,496.110931 511.080200,506.695435 503.807587,516.799683 
	C502.366302,518.802124 498.390961,519.623047 495.501068,519.830566 
	C482.100983,520.792236 468.662720,521.209167 455.254913,522.079468 
	C437.564575,523.227783 419.892090,524.649475 402.206512,525.875244 
	C398.723938,526.116699 395.216644,526.002197 391.249146,526.059265 
z"/>
<path fill="#FFA3C2" opacity="1.000000" stroke="none" 
	d="
M289.608154,679.416016 
	C289.300385,678.994568 289.199829,678.860901 289.085907,678.739807 
	C280.063843,669.151001 279.973602,669.087952 287.455383,658.416931 
	C288.591614,656.796448 290.898102,655.348450 292.852600,655.046509 
	C323.753571,650.273132 354.684631,645.694031 385.610992,641.084961 
	C396.901642,639.402283 408.195435,637.739868 419.495331,636.120605 
	C420.773682,635.937439 422.101013,636.095764 424.058136,636.095764 
	C423.373901,637.721558 423.057648,638.964355 422.392517,639.978333 
	C414.554260,651.927124 406.756073,663.904785 398.690826,675.699402 
	C397.434998,677.535950 395.069183,679.272888 392.927826,679.744568 
	C365.112030,685.871765 337.256287,691.821228 309.361328,697.576843 
	C307.512054,697.958435 304.609283,697.024841 303.319397,695.649658 
	C298.560272,690.576233 294.273499,685.059631 289.608154,679.416016 
z"/>
<path fill="#FFA3C2" opacity="1.000000" stroke="none" 
	d="
M348.561157,575.650146 
	C344.983612,575.786011 341.845337,575.786011 337.763062,575.786011 
	C341.263550,569.839844 344.446228,564.342407 347.719360,558.899292 
	C350.972107,553.490173 354.079376,547.966492 357.746246,542.848145 
	C359.050262,541.027954 361.745209,539.292053 363.915649,539.144775 
	C387.396606,537.551453 410.901672,536.317749 434.395752,534.912598 
	C449.949799,533.982361 465.498596,532.961182 481.045593,531.918640 
	C485.134369,531.644470 489.207733,531.140076 494.288574,530.643677 
	C493.209808,532.705994 492.730438,533.854736 492.056274,534.874634 
	C486.374939,543.469299 480.849884,552.179138 474.817657,560.521545 
	C473.297394,562.624084 470.234375,564.520325 467.684753,564.814209 
	C455.681122,566.197449 443.603210,566.920715 431.563599,568.010315 
	C414.103241,569.590454 396.655731,571.312439 379.197479,572.916565 
	C369.137146,573.840820 359.066467,574.652161 348.561157,575.650146 
z"/>
<path fill="#FFA3C2" opacity="1.000000" stroke="none" 
	d="
M377.709717,319.714600 
	C357.143188,330.661255 336.856293,341.345764 316.710846,352.290771 
	C313.020508,354.295715 310.846527,354.206543 308.747620,350.373322 
	C307.003571,347.188171 304.897644,344.131134 302.537598,341.371765 
	C299.860229,338.241394 300.175476,335.779907 302.754517,332.772522 
	C311.822815,322.198059 320.738770,311.492432 329.671906,300.802612 
	C341.048828,287.188446 352.386719,273.541656 363.739929,259.907684 
	C364.795929,258.639557 365.841064,257.362427 367.232880,255.675522 
	C379.589813,272.590942 391.476593,288.862823 403.865204,305.821625 
	C394.897034,310.585876 386.467499,315.063934 377.709717,319.714600 
z"/>
<path fill="#FFA3C2" opacity="1.000000" stroke="none" 
	d="
M439.818115,441.873413 
	C455.982086,436.057770 471.755432,430.307800 487.582947,424.710907 
	C488.693695,424.318115 490.860504,424.570282 491.432617,425.341339 
	C502.899506,440.795990 514.204041,456.371033 526.313904,472.981476 
	C523.651489,472.981476 521.956116,472.980621 520.260681,472.981628 
	C479.762268,473.005890 439.262939,472.907837 398.766479,473.202026 
	C393.406036,473.240997 389.894226,471.912903 387.628265,467.135376 
	C386.862152,465.520081 385.772766,464.058136 384.339844,461.726837 
	C403.010315,455.034424 421.225464,448.505219 439.818115,441.873413 
z"/>
<path fill="#FFA3C2" opacity="1.000000" stroke="none" 
	d="
M467.129089,420.112000 
	C438.805847,430.320526 410.824585,440.330566 382.954926,450.642242 
	C378.637390,452.239746 376.492096,451.298950 374.213318,447.574432 
	C369.797791,440.357483 364.919647,433.423615 359.788788,425.703766 
	C369.190216,421.968872 378.353302,418.346558 387.502838,414.690338 
	C411.089111,405.265076 434.657654,395.795074 458.282318,386.467224 
	C459.645874,385.928864 462.294800,385.846069 462.913971,386.651581 
	C469.762421,395.561127 476.327423,404.688507 483.311584,414.224609 
	C477.674225,416.289185 472.590942,418.150818 467.129089,420.112000 
z"/>
<path fill="#FFA3C2" opacity="1.000000" stroke="none" 
	d="
M382.654907,371.666779 
	C400.479004,364.283813 417.960571,357.073730 435.968231,349.646667 
	C442.313446,358.246033 448.570129,366.725342 455.248199,375.775787 
	C446.635132,379.234833 438.553772,382.500305 430.457428,385.728149 
	C406.094574,395.441193 381.740448,405.176758 357.324036,414.753326 
	C355.823456,415.341888 352.848480,415.325043 352.191711,414.413666 
	C346.793213,406.922363 341.781433,399.152313 336.222900,390.823334 
	C352.048523,384.304993 367.180450,378.072357 382.654907,371.666779 
z"/>
<path fill="#FFA2C1" opacity="1.000000" stroke="none" 
	d="
M389.270050,326.286469 
	C396.447479,322.404449 403.298157,318.695679 410.449615,314.824097 
	C416.688171,323.291382 422.761444,331.534332 429.229492,340.313110 
	C424.364319,342.407288 419.889832,344.397675 415.366394,346.269745 
	C388.502594,357.387787 361.606995,368.429535 334.780151,379.635864 
	C331.135590,381.158264 328.773254,381.056976 326.693451,377.255127 
	C324.321106,372.918579 321.356842,368.905853 318.190521,364.047699 
	C342.091522,351.350098 365.517395,338.904907 389.270050,326.286469 
z"/>
<path fill="#FFA2C1" opacity="1.000000" stroke="none" 
	d="
M386.979614,692.985046 
	C375.765228,710.035034 364.550140,727.084534 353.337372,744.135620 
	C352.083099,746.042969 350.842072,747.958984 349.159943,750.537720 
	C337.252197,736.356750 325.715942,722.618286 313.549469,708.129211 
	C321.364471,706.332642 328.215332,704.677185 335.102692,703.190674 
	C350.622742,699.841064 366.157532,696.559326 381.697113,693.301270 
	C383.144012,692.997864 384.667542,693.060059 386.578003,692.976868 
	C387.000549,693.001282 386.979584,692.985046 386.979614,692.985046 
z"/>
<path fill="#FFA2C1" opacity="1.000000" stroke="none" 
	d="
M387.008972,693.011719 
	C387.095551,692.975464 387.173706,692.928833 387.115723,692.933655 
	C386.979584,692.985046 387.000549,693.001282 387.008972,693.011719 
z"/>
<path fill="#D56E94" opacity="1.000000" stroke="none" 
	d="
M535.139343,311.960541 
	C549.411987,331.298279 563.654480,350.658478 577.971497,369.963318 
	C584.103210,378.231201 590.339905,386.422821 596.632751,394.568878 
	C598.973877,397.599426 599.864380,400.647644 597.925354,404.570374 
	C595.244812,403.602051 591.724548,402.910522 590.086243,400.775116 
	C567.585022,371.447144 545.340942,341.921814 523.044983,312.436432 
	C522.044373,311.113159 520.706970,309.823364 520.319092,308.314240 
	C519.840515,306.452576 519.419250,303.355896 520.369629,302.635864 
	C521.763245,301.579956 524.395447,302.086365 526.499756,302.087830 
	C527.080505,302.088226 527.660889,302.659485 528.614746,302.992981 
	C528.988159,303.017181 528.997437,303.001495 528.985718,303.323059 
	C529.379639,304.075439 529.785278,304.506287 530.190918,304.937134 
	C530.465149,305.070953 530.674377,305.272247 530.895630,306.064148 
	C531.352966,307.032532 531.733337,307.477844 532.113770,307.923126 
	C532.113770,307.923126 532.053406,308.013489 532.134033,308.222626 
	C532.508850,308.615417 532.803040,308.799103 533.097290,308.982788 
	C533.382629,309.127289 533.596619,309.342651 533.847534,310.153839 
	C534.350220,311.106018 534.744751,311.533295 535.139343,311.960541 
z"/>
<path fill="#D56E94" opacity="1.000000" stroke="none" 
	d="
M618.639343,436.041962 
	C627.218994,444.164337 635.434509,452.273743 643.592590,460.440460 
	C647.022461,463.873901 647.058838,466.760590 643.545288,470.105865 
	C641.711548,469.568359 639.930359,469.260834 638.829224,468.228149 
	C630.761780,460.662109 622.754272,453.027283 614.929321,445.212372 
	C613.571472,443.856232 611.987610,440.861542 612.586548,439.827057 
	C613.606323,438.065796 616.275696,437.259644 618.639343,436.041962 
z"/>
<path fill="#FEA1AB" opacity="1.000000" stroke="none" 
	d="
M535.095703,311.658020 
	C534.744751,311.533295 534.350220,311.106018 533.932251,310.368683 
	C534.289917,310.490906 534.671021,310.923187 535.095703,311.658020 
z"/>
<path fill="#FEA1AB" opacity="1.000000" stroke="none" 
	d="
M532.101746,307.616394 
	C531.733337,307.477844 531.352966,307.032532 530.975281,306.269928 
	C531.348572,306.404968 531.719177,306.857330 532.101746,307.616394 
z"/>
<path fill="#FEA1AB" opacity="1.000000" stroke="none" 
	d="
M530.149170,304.633728 
	C529.785278,304.506287 529.379639,304.075439 528.978760,303.325012 
	C529.358154,303.447083 529.732727,303.888672 530.149170,304.633728 
z"/>
<path fill="#FEA1AB" opacity="1.000000" stroke="none" 
	d="
M533.011963,308.734039 
	C532.803040,308.799103 532.508850,308.615417 532.150024,308.170837 
	C532.365784,308.101685 532.646240,308.293488 533.011963,308.734039 
z"/>
</svg>