<svg width="52" height="60" viewBox="0 0 52 60" fill="none" xmlns="http://www.w3.org/2000/svg">
<path d="M15.7839 49.4889C14.6946 49.4889 13.8115 48.7378 13.8115 47.8116V37.0767C13.8115 36.1505 14.6946 35.3994 15.7839 35.3994C16.8733 35.3994 17.7563 36.1505 17.7563 37.0767V47.8116C17.7565 48.7377 16.8734 49.4889 15.7839 49.4889Z" fill="#B3404A"/>
<path d="M25.301 49.4889C24.2117 49.4889 23.3286 48.7378 23.3286 47.8116V37.0767C23.3286 36.1505 24.2117 35.3994 25.301 35.3994C26.3904 35.3994 27.2734 36.1505 27.2734 37.0767V47.8116C27.2734 48.7377 26.3904 49.4889 25.301 49.4889Z" fill="#B3404A"/>
<path d="M34.8176 49.4889C33.7283 49.4889 32.8452 48.7378 32.8452 47.8116V37.0767C32.8452 36.1505 33.7283 35.3994 34.8176 35.3994C35.907 35.3994 36.79 36.1505 36.79 37.0767V47.8116C36.79 48.7377 35.907 49.4889 34.8176 49.4889Z" fill="#B3404A"/>
<path d="M50.4865 15.9329C49.3241 14.3801 47.5204 13.3052 45.4075 12.9062C44.3448 12.7044 43.2906 13.2756 43.0544 14.1799C42.8183 15.0844 43.4889 15.98 44.5522 16.181C45.6366 16.386 46.5621 16.9375 47.1585 17.7343C47.7549 18.5312 47.9509 19.478 47.71 20.4001L46.687 24.3163L4.32615 16.3153L5.34908 12.3989C5.84628 10.4954 8.07128 9.29122 10.3103 9.71333L30.3197 13.4925C31.3825 13.6933 32.4365 13.123 32.6728 12.2188C32.9089 11.3143 32.2383 10.4187 31.175 10.2177L19.8143 8.07212L20.9619 3.67841L37.9064 6.87856L36.3311 12.9099C36.0951 13.8143 36.7656 14.71 37.8289 14.9109C37.9729 14.9381 38.1167 14.9513 38.2583 14.9513C39.1627 14.9513 39.9779 14.419 40.1821 13.6372L42.185 5.96848C42.2984 5.53419 42.2042 5.07938 41.9234 4.70415C41.6426 4.32891 41.1977 4.06395 40.687 3.96751L19.8915 0.0400862C18.8286 -0.160187 17.7746 0.409461 17.5384 1.3138L15.9632 7.34497L11.1656 6.43888C6.80334 5.61434 2.46675 7.96266 1.49784 11.6719L0.0472997 17.2255C-0.188761 18.13 0.481799 19.0256 1.5451 19.2266L27.8199 24.1891H6.36553C5.27618 24.1891 4.39312 24.9402 4.39312 25.8665V58.3227C4.39312 59.249 5.27618 60 6.36553 60H44.2358C45.3251 60 46.2082 59.249 46.2082 58.3227V27.662L47.7575 27.9547C47.8989 27.9816 48.0424 27.9947 48.1851 27.9947C48.5573 27.9947 48.9251 27.9052 49.2443 27.7323C49.6856 27.4935 49.9971 27.1152 50.1108 26.6809L51.5614 21.1273C52.0306 19.3306 51.6489 17.4858 50.4865 15.9329ZM42.2635 56.6454H8.33807V27.5438H42.2635V56.6454Z" fill="#B3404A"/>
</svg>
